<mxfile host="app.diagrams.net" agent="Mozilla/5.0 (Windows NT 10.0; Win64; x64; rv:137.0) Gecko/20100101 Firefox/137.0" version="26.2.8">
  <diagram name="PÃ¡gina-1" id="xiV9Tw5Vra2QEd6lNLKA">
    <mxGraphModel dx="1828" dy="1559" grid="0" gridSize="10" guides="1" tooltips="1" connect="1" arrows="1" fold="1" page="0" pageScale="1" pageWidth="827" pageHeight="1169" math="0" shadow="0">
      <root>
        <mxCell id="0" />
        <mxCell id="1" parent="0" />
        <mxCell id="M22sSa8-nU_xc1yX0LfK-6" value="" style="shape=image;verticalLabelPosition=bottom;labelBackgroundColor=default;verticalAlign=top;aspect=fixed;imageAspect=0;image=data:image/png,iVBORw0KGgoAAAANSUhEUgAAAwQAAAHzCAYAAACe89pqAAAgAElEQVR4Xu2dT5IUubKvxU66mCVGDx67oLA7eJgxOJQ1myjoEdaDNkZN1SZoK86gzXiDYxS7OHcARs4odlIv/odCcoVc8SczMuLrO7mHilBIn7sk/0ku5YP77D/DfxCAAAQgAAEIQAACEIDAJgk8QBBs0u40GgIQgAAEIAABCEAAAgUBBAGOAAEIQAACEIAABCAAgQ0TQBBs2Pg0HQIQgAAEIAABCEAAAggCfAACEIAABCAAAQhAAAIbJoAg2LDxaToEIAABCEAAAhCAAAQQBPgABCAAAQhAAAIQgAAENkwAQbBh49N0CEAAAhCAAAQgAAEIIAjwAQhAAAIQgAAEIAABCGyYAIJgw8an6RCAAAQgAAEIQAACEEAQ4AMQgAAEIAABCEAAAhDYMAEEwYaNT9MhAAEIQAACEIAABCCAIMAHIAABCEAAAhCAAAQgsGECCIING5+mQwACEIAABCAAAQhAAEGAD0AAAhCAAAQgAAEIQGDDBBAEGzY+TYcABCAAAQhAAAIQgACCAB+AAAQgAAEIQAACEIDAhgkgCDZsfJoOAQhAAAIQgAAEIAABBAE+AAEIQAACEIAABCAAgQ0TQBBs2Pg0HQIQgAAEIAABCEAAAggCfAACEIAABCAAAQhAAAIbJoAg2LDxaToEIAABCEAAAhCAAAQQBPgABCAAAQhAAAIQgAAENkwAQbBh49N0CEAAAhCAAAQgAAEIIAjwAQhAAAIQgAAEIAABCGyYAIJgw8an6RCAAAQgAAEIQAACEEAQ4AMQgAAEIAABCEAAAhDYMAEEwYaNT9MhAAEIQAACEIAABCCAIMAHIAABCEAAAhCAAAQgsGECCIING5+mQwACEIAABCAAAQhAAEGAD0AAAhCAAAQgAAEIQGDDBBAEGzY+TYcABCAAAQhAAAIQgACCAB+AAAQgAAEIQAACEIDAhgkgCDZsfJoOAQhAAAIQgAAEIAABBAE+AAEIQAACEIAABCAAgQ0TQBBs2Pg0HQIQgAAEIAABCEAAAggCfAACEIAABCAAAQhAAAIbJoAg2LDxaToEIAABCEAAAhCAAAQQBPgABCAAAQhAAAIQgAAENkwAQbBh49N0CEAAAhCAAAQgAAEIIAjwAQhAAAIQgAAEIAABCGyYAIJgw8an6RCAAAQgAAEIQAACEEAQ4AMQgAAEIAABCEAAAhDYMAEEwYaNT9MhAAEIQAACEIAABCCAIMAHIAABCEAAAhCAAAQgsGECCIING5+mQwACEIAABCAAAQhAAEGAD0AAAhCAAAQgAAEIQGDDBBAEGzY+TYcABCAAAQhAAAIQgACCAB+AAAQgAAEIQAACEIDAhgkgCDZsfJoOAQhAAAIQgAAEIAABBAE+AAEIQAACEIAABCAAgQ0TQBBs2Pg0HQIQgAAEIAABCEAAAggCfAACEIAABCAAAQhAAAIbJoAg2LDxaToEIAABCEAAAhCAAAQQBPgABCAAAQhAAAIQgAAENkwAQbBh49N0CEAAAhCAAAQgAAEIIAjwAQhAAAIQgAAEIAABCGyYAIJgw8an6RCAAAQgAAEIQAACEEAQ4AMQUBP4aJ49uDC32fNnb76bH3/t1G/yIAQgAAEIQAACEFgqgQUKgr15ffbIXP8MIHt6Y+5vX2Z/bIOz8w/35vNvh0O8//2hefT+Lvvgubm5/2zy2kT/+/uZefCqCCXN5dcf5upx9I3IA1pOoWL63k+r48fzB+biS/mdQbZo2PQ3uSjbTM0xxQ4IghRaPAsBCEAAAhCAwGkQOF1B8O21efjrtcnD8kOv1rYBsD5wbkXEwKDZ86c5BYEuuLeFQF29uQXB1ddajE3FMaWjIghSaPEsBCAAAQhAAAKnQWDZguCXS/P97srIiRnsEDQ7Kb2cFDsE9vuW0DIa/vmOzb9uqt2PKYJ0S+hI3598pyWloyIIUmjxLAQgAAEIQAACp0HghAXBaQCer5aRwDn64fD77cq/MiXKSvkZtEPQqevYdkUbPuIBBMEIeLwKAQhAAAIQgMBCCZywIOjZIRBy0ruBav1unvLzzux/LQ+KmuZ8Qvb/2yvlhfHa4Dh8hsBP42m+27OybacT1X4ST4MaGzgrBIF25+GQgqCHo5/C5Aia+t2iXU/M6+qAcMFcaKtrl/MPN8a8Eg4Vi2cg9OlkCx0bqBYEIAABCEAAAhshsGxB4BnBDvBkQSAF136Q3b7b+UQtCEKHXKu/y4IgUGYtJMRANnIOoDcg73tXs7IfEAS2ELIFUl+HOLogUB6Qjh1ettrb50c5ilawhexePDXRAfKNjEY0EwIQgAAEIACBoxBYmSAI7Bo0gWAdKHeDOHn3wFk1zsv490Vxw5EkCOSDxvl3bsxFfhORIAhCB411B5AnFASS62l3B/J3jy0IPPuWDWpsIgq9VjT5KVKWf1gc7B2IVhDkdnhtntzZt02RWnSU0YyPQgACEIAABCAwiMCyBYHmUGvWbD8tJ8SiXrHtCdisFfJQPrwvCKzgPLSqLgiCJsD02qkJKHUpQ9JKd9musYLCYnxkQSDddtTxgJpvKN3IFRRBHwjZJcwynvo1qN/yEgQgAAEIQAACEJiMAILA/YEpxS02viBQBPBeuX0iQlGemVAQNIJEXhmPetumBUFfytDhr8SN2ooHIAABCEAAAhCAgENgpYIglrvdE3Argts+QdA5mGzD7hMEM+4QhD0+ICgU7ffKHPJOsGLp146Gd1qcj8ywQ9D6gu1zGkHHWAQBCEAAAhCAAASWQWBdgqDnQGwRuP3zvPpdg76ALbBKngeTf+yK943wS8XhMwRvzS7/ZeL/9X9hN3RWQPfDZ7odgmRBYP0CdP/vEFgl9wmC5B+QSxcE4TMXZVmfXnw3P/7Kfs1CKwgCDKQzBOIBc4tHkzKUzGEZAwS1gAAEIAABCEBg/QSWLQgk/k2OvnyAuDefXHhXyvEO3jBTreRLgsC/prSufLVyLAiC7Nhrdui4uvK0t63SHyf8pWJnh0Je9XbroKy7fbOP6taidEEQ4xi9+lU4lKy+Zci7nrbLqfGvZA7rH3xoIQQgAAEIQAACyyCwOkFQYJWul+wEo4qUDq8Mze8Q+EFyNBi1zwJYPhH/ga/5BEEnwA4G8UpBkLwyPkQQlOAkMdjhqN4hKMvzf4fg3lx9zXaa3t9Z144K/pYxy+6WMhdfrDMEyRyWMUBQCwhAAAIQgAAE1k9ggYJAC73nh8m0RfAcBCAAAQhAAAIQgAAENk7gdAXBpAdZN+4FNB8CEIAABCAAAQhAYLMETlAQuKkyml/l3ax9aTgEIAABCEAAAhCAAAR6CZy4IIhdL4r1IQABCEAAAhCAAAQgAIE+AicoCDAoBCAAAQhAAAIQgAAEIDAVAQTBVCQpBwIQgAAEIAABCEAAAidIAEFwgkajyhCAAAQgAAEIQAACEJiKAIJgKpKUAwEIQAACEIAABCAAgRMkgCA4QaNRZQhAAAIQgAAEIAABCExFAEEwFUnKgQAEIAABCEAAAhCAwAkSQBCcoNGoMgQgAAEIQAACEIAABKYigCCYiiTlQAACEIAABCAAAQhA4AQJIAhO0GhUGQIQgAAEIAABCEAAAlMRQBBMRZJyIAABCEAAAhCAAAQgcIIEEAQnaDSqDAEIQAACEIAABCAAgakIIAimIkk5EIAABCAAAQhAAAIQOEECCIITNBpVhgAEIAABCEAAAhCAwFQEEARTkaQcCEAAAhCAAAQgAAEInCABBMEJGo0qQwACEIAABCAAAQhAYCoCCIKpSFIOBCAAAQhAAAIQgAAETpAAguAEjUaVIQABCEAAAhCAAAQgMBUBBMFUJCkHAhCAAAQgAAEIQAACJ0gAQXCCRqPKEIAABCAAAQhAAAIQmIoAgmAqkpQDAQhAAAIQgAAEIACBEySAIDhBo1FlCEAAAhCAAAQgAAEITEUAQTAVScqBAAQgAAEIQAACEIDACRJAEJyg0agyBCAAAQhAAAIQgAAEpiKAIJiKJOVAAAIQgAAEIAABCEDgBAkgCE7QaFQZAhCAAAQgAAEIQAACUxFAEExFknIgAAEIQAACEIAABCBwggQQBCdoNKoMAQhAAAIQgAAEIACBqQggCKYiSTkQgAAEIAABCEAAAhA4QQIIghM0GlWGAAQgAAEIQAACEIDAVAQQBFORpBwIQAACEIAABCAAAQicIAEEwQGMtv/9oXn0z3Pz/e7K7BK/V7z77Z25v32Z+CaPL4EA9jukFfbm9dkjs//z3nz+7ZDfXd63Cr97f2fML5eDxp3lteiUa/TRPHtwYW6f3kw8jpf+/unFd/Pjr9SZ5ZR5UncIQGAOAosXBM3EVrT+zFx+/WGuHs+BYr4yP54/MBdfzs3N/WeTFtaXA/61sSb1v5+ZB69uzdkbJoGuxSpWPwU7KoOi0k72+2P9TbDffG62jJK/vTYPf702d5MHP4rmVd82G+8brh+ff0AgKbxntkeGj/+xKs0lNGLfPeLfq/kPnz6iDfj0agksVxDUgYWEXhngLcVqwyeEsCAwxwi4lgJUrEc1OYp/04ixHkFhNO9LH16xIAhNzHW/PUYfRRBkTrjBIPHo41JPPy988pN5PstC1gZtPUoQnN54PDx2OHqnoAInSGChgqAO7qRALPvb2X/N1YD0m2PZZ3inPr0B7FiMxwdCAdbVBDRMgK3YfqMm5pm8BEHQCIL9xndJZvKwQLHhfr7/+6Mxv71MThXV1R9BoONUP3V64/Hw2CGNDE9DICewSEFQb3mvZVtweKc+vQHseN1q7OQYYl2VO2jFe8X2QxAcz9V7v1z6K4LgkOY5Vj8fO+YdktFE3xo17hzLTsPbPjx2GP5N3twugQUKgpQArJ78Ls3u/bW5Lexo5X0H0o66QiOUaqJJEwmkmTjpPLpOLdTjl/MsWeU2+z/rDIGwCurnvpcO7Qqq0HP2s8Uz+0tzubs211U+fX1eQfWdqn67N5dmn9kkO9bY/FfUx5RnINr/3Dz9ofYYOzmOFQRK++UNr3cdOuNO7LxCINCTVsV7bODudKhs2qlnwOcbwRSwg6LN5Xmhnbl8szfX+YFY13fsg8JCeWdPz435kvmWtTrePYNkeV10BV1qZzYmfDDm4pWxzgMl2CX7vMhbJTZDKW2t3/SWLfqENcYp7FPQE5+zylGNucKEK9nTslE9LnUvZpD6rNQP+w5WK8ebEL/CH+zxrDv2lv5numffREatHet+4J458+cRua/p+nTAv3vOuTWXY/y5N4+cNntn2kQ/ydhIc2NgvhHDMkEQqMaNQH3sOVLTN8VvVW1S1aNuVKyfBP7ecq7tF5s3thvc0vJ0AssTBEmHEq3B3Mupl4WFN6jm3/v9iflh3+KjPLhbluV0SGHA0ggCf1fEGrDtgMELAPPnXpsnd/aBZaHtQuAoTVbtoOgKorTv5OFcO3jZk64g2GzbDbbHPIJAu1uVar/uoVvNylVC4GlNJv0TiNKm0rgSXKkT7CD2ab/NbfAu+EgnaBZSCsU25wH4Q/Pfv+yLCOp+1S/467rYgY7cN/R2qcvsCHVlmpPoh+J5jf76dPtlZVilfUzwuWfG/CdnrBxzPX+K912tINCMtZ3Pa8ebgH+VZfWkDHmCIMzo5l/l4e8xgkDy2yad0joLJQqVSPwg9s+67T9jfbYVw3IQrlmAawWpXYZ+3IjZ6a67iBacM4te5F1woq+Hvp+E/RlBkB7u8kaMwEoEgTCYRA497npv3ohPUOGc9aqj7tor5uKTVOh7wgCWFEC0XPpWqmwW2gC4dixRYGW3zLg3vcgTkCYQzr+UYA/B43WpZ/EV2HBn0tsvOBEX/rrvuUVLH3jWgZt3245yuz3ur/LEXPLxWWjbHHrOq0+kb8duGYoHQ2G/DK3Seik6onB3bgyrHEoOdm1vC/u/LzIigkDYjRhrn6amg8fceP+eTRCInbpH1Iq7ObFA09ohUPTB4YKgZzx1FrnifcAH0+8nt00wHS7bD4RT55t6h8oXBM4uTD4Sebf7hfhE+nu2g1HvTMmCq5KF0m6QVI+EfqIai2NRHn+HgJLAOgSBcONOKFWg5tJ/bWd8gmpWy0KgrYkj2qmDQf50gqAcSJ2Ac+BuRidUcQfdQFsOJgh6b18Sgv7meYe1tSIYFRQJ9gtt59dMw9+aQBDUaQ+Rayij/ppXNmGHQNvmUCDhBkjBgEMpluPBULj/DxcEodSUxvLha4n72uXtZib4iS1IOtftdge12idjfjFmzA3vTFYys0pljKYMWakh0X4bnCTDgkAWm3pBEPe9MTsEPfOWu7vTu+Mhg9H2u/iqdrtQFfMprybBlCFfEPjCKpIWGvSHyMJa9V7a+NVNibQ/7e9KKndPlEEfj0EgRGC5gkCVVxubuMOGj+YO5q/2BZehHMn6k9a70UEvIaAUV3+DdbEHkjogqbY6/7fK5Xc499ZV850JBEEwgOwN9hUirl69tt2iaX9fPnJkQFbbL7QL0cjUeXcIJEGgsanUjdSCQN/mtAnVDwDEvhHIxe3/TZPYuOL3q+gOQbAeFdy+8a5vVdnzvVRBoLVPfDdPK/yCo3LHF7spGdodgko+lD8EVn0o9pstqvGmV2zqBUF0LsjqPHiHoLeOkk87to9cZa0TBMb/7RzL4G77NTw6/jKHIEjom32CTjt+pfSTZD7EuhAYQWB5gqDJSdSo4thWuhA0OLD8Lff8AUVwqVyNLEqL/TCZOqDMCnOfFfN6hW8WA2nGwz6wKUwAwbpqvzNSEAy2h8ZmvR1FntTl+jgFJdgv6gvBOiYEeqH6uIJAa9NRgkDh/1X52glVF5jkv9wq5+rGV2lnEARj/FOxQ9AucCT4ScVd65Ox5+JclTNV7ZfuLquVulGWFBMp8Txr9XgzkSDQMBosCPp8LDJfaVJ3tP0uukNgXZIR8ynPY+YQBAl9cwpBoPGBut3JfJRdjMcgIBFYoCCoV0iyLbXAikV7t3NP4J50MNgVHwpBEAg2JMjxTi0HLk1aUt+h4sDqobgS402ofm2DdVV+J5S/rk0Zkr+fYI/BP9gW2U7u3bHS208lMMSxSmYg5rRqBYHWpiMFgbbNWkFQpyu5K78eiyRxajcydPC43mUTdt4cv/PtojvMLE9TAf9qFhvs1fR0QZBmH+fgpV1h5ZirmYrdoFgcFwTh4JUdSZNTjzcTCYKQ73a8T8xF1/he2MfiNg74jVUxcazJZVlR39Yvgt8SFiDic6Nj0VkEgb5vTiEIND6AINCMEjwzNYFFCoJm5edn3lxrsmu2lOsJuS9QbLdD/WtG35pd9cuR/iBn5fqqtlB94ZIPcm8ffzc//spXKXUrpPUKTRPk2NvnfYIgtJpW5ATHrhXMHtGmDGm/kxSE+UH4cHtoRENf94kdJO2/3k1tvyZtySmv4LY373qu/XNX8WpWRS+xr9HUCgKtTSVsgd0FeXfNSVd7XBXotFktCASG9ja8f7uVmwMs3xLiB2VW3+6kFXQXENR2qfu00+eKdn97Z+7tm84c5o2trTFJ+reafzSFqVO+zj7tuSn3isx6J1Y35spBu+37ggCq2dXtt+3hpP3t/yxv62nH3nDfVY83qhX20M0z9k51O78085Ib5Hr90pqTOr+aLox5ko8J/+bOUXHBYC3U2eON6NOSP8k+dlhBUM/Fgj8o++YkgqDJgnCvBs8ZtbFJ7r9hu8R3v6YOFilv/QQWKghK8HbA05oivjrXPhvIjxWD4Patszc35vk/F+bauiko5ApyHYX81y+xFCi/rvmEcfU1Cxb+ed7ccqA6Q5C17+bFJ3OR3ene3GUtrN61dVce8nLzzaXvjBQE7SSeag970nStFWNfeFs499UNRkRnUNqvDFM6Oc5NcdHdDfe9vF0X5sb9ISqtIMg/rLFpwPk7ubCx3yFQtFkvCLIKdQL0vII5iyvz37NH5tOLVoyLzxV3x/fd6FQ22M31zYXGu2+PsquGAzuKDaeAXSTe1TuaA7DSWOPnx6fvEFSt1fmkx90Ro1aw03EbzQ5b5wW/z7r2yJld/Lv83ZT6sLGUnx1j69tZGP8jgsD1s/qbsk8L/T+ww1Qjye2c/4ZL/jsd7e8TBBZBpHNBkfLz78TOWjRt+fDcfHpl/8aMNL5KY1zIpprxuSIxaofAHzc6vhE4T6W50aiYQQK3DLm7XWVLdLGJO1fwOwSByYh/noTAogXBJC2kkHbwkQROMQjGgyMwQgACut0+OEFgjQT6VsfX2F7aBIGtEUAQbMLiKYckNwGERkJgEIHkFIdBX+ElCCyPAIJgeTahRhCYkgCCYEqaCy5LTm0qKxzbUl9ws6gaBA5KAEFwUNx8bEEEEAQLMgZVgcAMBBAEM0BddJFNDnBC3uaiG0TlIHBAAnmK3R+79kzPAT/NpyBwVAL4/lHx83EIzE0AQTA3YcqHAAQgAAEIQAACEIDAggkgCBZsHKoGAQhAAAIQgAAEIACBuQkgCOYmTPkQgAAEIAABCEAAAhBYMAEEwYKNQ9UgAAEIQAACEIAABCAwNwEEwdyEKR8CEIAABCAAAQhAAAILJoAgWLBxqBoEIAABCEAAAhCAAATmJoAgmJsw5UMAAhCAAAQgAAEIQGDBBBAECzYOVYMABCAAAQhAAAIQgMDcBBAEcxOmfAhAAAIQgAAEIAABCCyYAIJgwcahahCAAAQgAAEIQAACEJibAIJgbsKUDwEIQAACEIAABCAAgQUTQBAs2DhUDQIQgAAEIAABCEAAAnMTQBDMTZjyIQABCEAAAhCAAAQgsGACCIIFG4eqQQACEIAABCAAAQhAYG4CCIK5CVM+BCAAAQhAAAIQgAAEFkwAQbBg41A1CEAAAhCAAAQgAAEIzE0AQTA3YcqHAAQgAAEIQAACEIDAggkgCBZsHKoGAQhAAAIQgAAEIACBuQkgCOYmTPkQgAAEIAABCEAAAhBYMAEEwYKNQ9UgAAEIQAACEIAABCAwNwEEwdyEKR8CEIAABCAAAQhAAAILJoAgWLBxqBoEIAABCEAAAhCAAATmJoAgmJsw5UMAAhCAAAQgAAEIQGDBBBAECzYOVYMABCAAAQhAAAIQgMDcBBAEcxOmfAhAAAIQgAAEIAABCCyYAIJgwcahahCAAAQgAAEIQAACEJibAIJgbsKUDwEIQAACEIAABCAAgQUTQBAs2DhUDQIQgAAEIAABCEAAAnMTQBDMTZjyIQABCEAAAhCAAAQgsGACCIIFG4eqQQACEIAABCAAAQhAYG4CCIK5CVM+BCAAAQhAAAIQgAAEFkwAQbBg4yyvah/NswcXxny4N59/W17ttlOjvXl99sjs/9yCHfC51q9zFm/N7usPc/U41duX5jMz1efvZ+bBK2Nu7j+bl6mIZnl+jM1mqdAGCi3HjNunN+b+dkovKH3204vv5sdfu0Vz3P/+0Dx6f2fML5fm+92VWXZtN9JHFjc2+S6MIFhAty47rzGXgyb6Azbg22vz8NdrY97UA2I5QF7/PF/QBHxAHsf6lGeHY1XkAN/F51rIxYRya84tQf7x/IG5+HIWHzuW5jMz1WdxY6lnM8bMuUeNsk/MMSfNJTSmJVK2vy3THi+m/dJEpQnj2kQlL6qYxY1NAh0EwQJc5hQcpcAUDM4UAckYzjMFD2OqdNR3t8TjWD53VAMHPh4UBKYjEsS3l+YzM9VncWNpUBDMPGYu0X8nq1Mlqoyw+l341SfzfJbFtVMQBHPWsYf7GNsiCMbQm/RdBMGkOIcVtrhJLNSMmSbxKLVjfTdasSM9sCUeW2przJ3GTJxL4zhTfRY3lo6xWcwfNvv3cGC6//ujMb+9nClFZs5geypjlnXcN7v4U5Wbl4MgGENzcWMTOwRxcza5d8Wjh1nFOQVHKXDMNIlHrXKs70YrdqQHtsRjS22NudOY4HJpHGeqz+LG0jE2i/nDZv8+U2Aa5YkgKFKEpZ2ZKLueBzbSRxY3NiEI+r22KwbaZ+fOwVM5StVpvBY4B6ekNujrX+e3dr9yVq82CJO4mK9ZPZcdaer816lH9czuzaXZv782nWetNrn5kGWBdn6oXGczGZf6UOt3s/sjPy9hN8nJU63b5B66lgY8DaP8U4Ldz56eG/Pl1jrLUdZJZOUcKiv9Y2cu3+zNdX7ozPpP7yfVt/aX5nJ3ba6rfNXGT+qVpA6r7EOOTWTbOukvCp+Ty7HEfIC1e+CuKCfYpvDYUTD957n5/ufePMpy/O3/WibVvyrtLvbjzO63md1tO4ljx1ifyXtYx4elPpaQo51QH8nfUxZm5LE0MEZ4Cz5VwGcbMOFQptZmnTGz9gfhAKx3PkTjO+K4Wtsq3j5Vn8z4jJlnVN8IteODMRdOHytmhMpfRfuL3NrxoR4T3YPo/twmCwJVe8QxMaEPKcaw6PgvxhDOouco7u6Mn/VcZ6dC20eC89kBxiZvvFHGKuEZovyL75tCf/Tim1ip0/6dlKGGZ8g42QMJk8IQ80QFQT0YOPWoB4Bm8h656iYeUMwHkX9flLc1KIKzLFQsb3gQ62oNgNYA5weS8iDVHmZuKQfrbB++HMXF8gt70q4HV/vf1IJAyahmaQsgkVs7QUuiy+bWDshCwJzg5+3k409qKpsUE+Rr8+TOvg1G4KLyObvXCauHma0efr3q3AxSc/AP6BbhRdIheZFpEwDYvqy0u9Tfrcm8XxDU/hrra63PdCdt//3o+NQ76OnrU48vd53gOG01WKqrN07m9RUYjzqMmmAz9zvywXA3+Ez0nayJbjAWa1/txzF/GLdTnNbv8xDTE9U9qSvBoEuYj27+Vd7SNkYQaJlN3ocsUSbZy0sZEoWn0LcC80sV0paXiAg7BB/PH5r//mXffiYcnk/oIwfhOopJ3T59FonnA/n3f39iftg3YVXjvO/zQyLL9HcQBDWzkALP/54QKKWbQFKO3VLCg4kzSUwR+PZd1aYJzkLbf26wHKprz2q6LwhCW7hVZ91V187NwiU8mO5iOwlsfKoAACAASURBVARaRpHnvNuexIG6XPWur54L+VIsWHD9WgyyioeUNgl0FK8eGp+zylJPvMFyFQd0nboHv+naT2l3dXnSqtMEPlOv0teTkpqpZFN1fXrGwaKMffwmJYlH0B99EZ3aBzoyNHRTXPAguCXYpCBgoO9IQqeuZ3/7eoSXW79R46nc8UP9/k6ce3vOELh2UKSjDBcEemaz9KFm0cFewJDPEPSPKVbfCiw+xgSBZFX3m/px7TBcU5l48YfCt1RjRAfecdPSEASNMZa7QxAeyF0Vbm2Np4oYzSCvCM6kLUHb3/vSj4rnpFX2UN36RFxHyI3g0hNQhCaxmCDQMgoOWB6PHt8toLYTRqjM0KQYErhBn1TbJC0wsAfj6Lc1948rfFkr7rV20to92D5hAlJPuiGfkVi5K2e9q4b9lLRsCinpXJfolqxJaRNX4TpXJVuluoFuYBdG4wcpNgumolhjtvuM1nd6V+9729cTiHgrqWPG0+H9vn1TLwg0gfhwQZDAbI4+1PQZfxfS3SFQ963eOGDcbp2+jxyG62gmUqzSM1hofDG8oKYZhcY/gyCwGIYGXc1ENMYU/Y7S3wmlTtZthzL9QaN2FUHULJ0sspsQZN97jkDJZQZBoGWkDqYSgvDZBUHorEttJCntyjOgn+4SFwR997uHcsi76QhDV4i1dtLaXT9x+qvq2rr0p31IE7LDUCO6Mruq6xM6d9L4hm5r3vte37gmjitdca3duk+xWXjMrn+Lxuev9Z14Ok+gfb2BoBygDZpncnsGx4j+fj9EEGj69GBBkMxsWB/qa4Pfv6QdgvD4VzL100el9NzeW4aCc1BbtrqPHITrBEwmEATBfq0cX8fEndK7CAKHSneQ001CY40SU47RHYLQqX8pzz1U2Ul3CBQ/shZZ9e+sskeelQevHqukcJlBEMTsXddcH0zptxlnFwQaP8ob6K06lq0enDLUE/iVZcbPpWiCB8mrtHbS2l09cQoBt7YuvStRERvWk5hmoURfH8H2AwbWITsEcjvScoRTbCY+azP/9bX3A3Ra34kLgmZ0qX5Usu4X8VXZ4DibMp6O6PdDBIGG22BB0DM3xOwwSR+SxsuqTvIOgWIRbNAOgXy+xWWv7yPDfTGFq3q8T4lVesYsl0cda3bHH/1cPmB4jL6CIIgimv+B2KAlO044qLJrXDi9lUMebo3cqTvPK3YI3Pzj4PdSOllwkFLUOVCBZC7eQVPdAdg2yLVy07UHhwLP1f7gH8aOD/izC4LAoXLPDIEAfpgg6BtEAztsGl9Wdn3fHuWLXr9V2j3U36XJLrQiHrrdQ+MzwfGm4SHnKYu41D4cOBivtEET5nq5/OExQhSK9vcSVgBTbCYHIq2fljd3OX1Z6TuxQFQaz8vFl/AOW9wf2lvH6rNKQbON6PdDBIFmPpLHROEwvCcAxjAb34fkCzz6zhDcjfwBQ/1Y2o5/7eKgvo8chqvGrwufS4lVEgSBPA4gCBKH/PU9HhMETcfvXJNXD1jWymc+2P6xaw6QhlZhQwSb7atmu8pxTlUQ1W7F+cr3rdnVvyCZ1MnCk3qzoyNcafn28ffyZplRXOwt9nqSDrXRX1W0twRbHkpGzS1D7rZracFO0Fev0knXjH57V94S1QSp/g5OaJWs31dkAaKySb1S6OVN519MSxmKrfR4gXQgnzdWTohF017bJqI9lHZv6uf7W0HHOrTujx3+uGD7YNRnhHrn7zd9SRI6vUNyQn0Ef28n5L15d2/fSCV/VBpLJX/0/620zf7P8uaZ/L+oYLCrkGCzkJ+JftR8I813/NV8Rfsknw3929B5ZkS/t3GHbBPuD/6CjHs7X3uAWRrzC48ob9CT0h7tcXfyPiTZvs8fpB8mE+KFvEmFPay+pdoddDMnfPHU+rJ0/XN8XGvSymblOpJJwoKBNPf6C0mW35EytL5AX9sieyLovuPfHtC95Vy+B79zG3Di4WI/py0tOCvrH8jPs+uSJAjce6+77Zb5Re6hV3NpJ4Ebc5GlnrQWEvOL3VzK/Dv/MeZZdrCxe9hYwagZsO3facjbfmX+mwUvn15UgqeuUiA3N3pvfRPk7dTXbcaC56hN8jq79c1Y3bz4ZC6y30lo7gSPilDN+QD/mfMPN8a86k6csTaF+nMThHx4bj69cm3lBrFKuwtsvt89Ma+zgMT0CoJ6kh/hM4rf8NDm1rcBvbI+jShwaCsnyP4dsO496fK1nM4I7N4Y1jeoK20W9LNm7Ailqip8pyeg88d24UYtaQxx2btjXM5EPZ4O7/cd9E4den+HQPKpiI/nvvHZPCt+s6X9fYLA6q2CmTQeJvUhcU6V/KRv58EWOhZN4ersYHpYgHuz+NgUm81TxW9GOLeDKftIUcxBuI5gMlIQ5E10++TZmxvz/J8Lc13fkKgNIid6jpShiUBSzFoJHHcLb61U19Su+A7fmlpLWyAAAQhAYI0EEARrtCptmpAAgmBCmKssCkGwSrPSKAhAAAKbIoAg2JS5aWw6AQRBOrNtvYEg2Ja9aS0EIACBNRJAEKzRqrRpQgL+YbwJC6eoNRBwD62voU20AQIQgAAENkUAQbApc9NYCEAAAhCAAAQgAAEIdAkgCPAICEAAAhCAAAQgAAEIbJgAgmDDxqfpEIAABCAAAQhAAAIQQBDgAxCAAAQgAAEIQAACENgwAQTBho1P0yEAAQhAAAIQgAAEIIAgwAcgAAEIQAACEIAABCCwYQIIgg0bn6ZDAAIQgAAEIAABCEAAQYAPQAACEIAABCAAAQhAYMMEEAQbNj5NhwAEIAABCEAAAhCAAIIAH4AABCAAAQhAAAIQgMCGCSAINmH8j+bZgwtjPtybz79tosE0EgIQgAAEIAABCEBASQBBoAR10o99e20e/nptzJvv5sdfu5NuCpWHAAQgAAEIQAACEJiWAIJgWp7LLA1BsEy7UCsIQAACEIAABCCwAAIIggUYYfYqIAhmR8wHIAABCEAAAhCAwKkSQBCcquVS6o0gSKHFsxCAAAQgAAEIQGBTBBAERzb3x/MH5uLLmbn8+sNcPa4rUx4CvjXn5ub+s3lZ/3MV2N89vTH3t9W//v3MPHh167TCKa8RBJdm9/46K9f675dL8/3uynCy4MiOwOchAAEIQAACEIDAkQggCI4EvvmstHrfBPndwH7/+0Pz6L1pxYMkEMzevD57ZK6NFejXz2UfPbMOFpdixJhzbh86thfwfQhAAAIQgAAEIHA0AgiCo6GvP+wH8EXg/08WvP+869wMVATw+zbQ9wRCXWQhKPaecPBvGap2Iuwdh6PzoAIQgAAEIAABCEAAAockgCA4JO3At8qV+jo9qBQIn158N+++PbIEQBm874UV/lATmpX/4BkCYTdhATyoAgQgAAEIQAACEIDA4QggCA7HOvylKkWoDODbHxG7+mqlCP2vs+pfpwb9DBVrpRshCJZgZeoAAQhAAAIQgAAEFkkAQbAIs1ipO/+6ydJ9THmYuArkd5lQuPi3vYtQVrq7s9DTEATBIqxMJSAAAQhAAAIQgMASCSAIFmKVOrg/f3prbptzAlVKz+7SXO6vzfXOul0oq3d5huAufihYPHycFRD694UwoRoQgAAEIAABCEAAAvMTQBDMz1j3Bev6UPsmoDrozwvxbwOqryeVrhndm3f1laXWLUOmuWZUfpebh3Tm4ikIQAACEIAABCCwFgIIgsVYMhDcN0LB+U2Cpt71e05D7JuDmtSj72b3R3Yl6c/2WVdkIAgW4xBUBAIQgAAEIAABCByEAILgIJj5CAQgAAEIQAACEIAABJZJAEGwTLtQKwhAAAIQgAAEIAABCByEAILgIJj5CAQgAAEIQAACEIAABJZJAEGwTLtQKwhAAAIQgAAEIAABCByEAILgIJj5CAQgAAEIQAACEIAABJZJAEGwTLtQKwhAAAIQgAAEIAABCByEAILgIJj5CAQgAAEIQAACEIAABJZJAEGwTLtQKwhAAAIQgAAEIAABCByEAILgIJj5CAQgAAEIQAACEIAABJZJAEGwTLtQKwhAAAIQgAAEIAABCByEAILgIJj5CAQgAAEIQAACEIAABJZJAEGwTLtQKwhAAAIQgAAEIAABCByEAILgIJj5CAQgAAEIQAACEIAABJZJAEGwTLtQKwhAAAIQgAAEIAABCByEAILgIJj5CAQgAAEIQAACEIAABJZJAEGwTLucfK32vz80j769M/e3Lw/Xlr+fmQevjLm5/2wO+NXDtY8vQWBSAnvz+uyR2f95bz7/NmnBByusGGfeG3P59Ye5ehz/7FHGpXi1nCc+mmcP3pqdsk3JxUdeKBj989x8v7syu6kLpzwlgdwHLoz5cLp9U9nQE3isHCevzeXq+wSCYAnuWASyt92aPL05bDA9KYfjdCAvOPj22jz89drcnTTLSQ1DYTaBqt+dvflufvy1wdCn6h9mMe2vxo2flZF+iU3AZdC0V9dfGJeW6ANVnc5nCwZLbs2M44yPH88fmIsv5+3CylrH0Ui7yvlkd5wFpsX1TWfqSI1ZltjP8iZp6lU8s1cvOpzyJIsgWID1yoHnLlCTsxN0xIUJgmhgMc4JvAl0XHG8fSgC9aS2VcG4oKCjbwwMCbai35mUhZOwIDBL8oEZBUE5VskdrBYgQUEw8zhaB2fzCaFuu22fk3wMQRAeiJNjlqWOtdF6bWunBkFwqOCj5zvBbe9GhZ+aKFiIIDiQbREEBwLNZ6YlsBRB0DcpZ397+PVK2MH5aD7+/dK8TEp1Os64lGy0mQRBHcSFgt/Xv/4oUseONp7N1O4Q/3rePfvlztz9tHZEqhcQBDFBIKTqnWzMEmjr39k481s2ziR34tN8AUHg2K2rfA8TiPfmwUYV7BId7zgTb2o+8VTkjjaBTtUAytkmgUUIgjp9xQ/IpjfKccal5HbMERjX6TGKVf6jjWdztFuzEPdmZ67f3xpXKCEIBgiC/JWTjFmSe+kqX0AQWGYNbYPNvYXZH8jWebXOhCnl8JkUAePk61YcmkGxnkBct/cmFCcfNX/+l3NznmWo3tqHcNTl9fQzsYy2zT7Hqm5uOoCCXT0ZXL7ZZ5NFN52r8YdAmzoTi+Jb/SOLbCc3xUHyXY3fqtrZVFBXFxOxU16cmLrg+FasTaH0h067q7rs3lya/fvsPEnRlqoviQFxoI0pfSvk60XfqPPiA/nvQp1C41I3gKnLuzS7rJ1lfrg1Hgh+ePb03Jgv2ZNWDv4U36rtovE/VQ6v3UHE/pQ94KX8pI1LnXMUKvsFfDj3roTcf9HHM7vcZnbplqPse4HBpP6Opm6+IJDHUX0f3pnecdQE2maPBwGbaNoTGl/t+eLJ73kqVXf+lAWBcnwQx52yJkWdjXtu0Jm7m3HA7s9VS5xxsrDD/tJc7q7NdZUO1o4N4/xGw84/zC/ELMK4Nkm9h8419XgRWBRRzS1GGnNlG8kca05C3KY52zCDJEEQNFCFCaT+m2JVZYxtYivbpXNaTiMehkpb/fLKzBuQO+G/L8rDzMJWvTSp+JO/NQDZ3JTlhTlW9hEGw5t/lTcxqASBkl07UQvcpQHZPoRXN0L5rT7fCdopO4TuCpMhh0PT2+kMXt6qntZOd92Axx2Yo6vXuZ+9Nk/u7BulhG9bE4aXKhGapLJJVRIVd8pxQBdQ6QXBx/OH5r9/2bfoSIsE1vgVDI6Fg6K5bLAEwfhvtYGyJlhLCVQboSn2v67N1ONS0AfsBRg/IJbTbxJ3O6RVe0vw2PxU40DPQCK+H3he47+i3XrFbHwcDZ8hCI8pncPPiZNwZ74w/gUUkiAQxa5kR3HcsWOMyHweGLek77fBq7/LNtZvhgmCegzw22jPUePrPWKu+R9jPue3aPX4rLTgks261iFzecydYkHkWLt0CAI3eJN6gDIQSByPmsdjgsD9e/B59Wn4wMp5rAFe5wmVoxQn0aDPqpBiO1kjCLTsQs9JHTXUebXfioogL8Cr+O6qA5UpHJ2P6dsZsXVdl6idwr5RrxgV1x0ObFPSgUi1P9di0xExouF6VlOzVbz2Kke9IJA+E/T1zoRVvRmyiZJx0rdiY4jofxqukuCvC3MDg4RxSekDHd+sV7SlawgTVvb6xwd7h0DZ9w4mCJR9OKuPfnypFqTshY66PRH/3SXsyNiI3Lq5wbMvCMLzpieQAn1L5iHwDPZNvw7hAHS83wwVBF47tYsvxQeV9R4x1zTt8urVE7t4fTtQT+W4WtZBEjUD47PEsVd6HEHQUFnuDoE8cIWtH12ZS3JY6zvqVdzpBUFMNOW11AiC0FZg3cqaXeh74VWj0OrMeDuF7p9q008CuzKKAULdTnFr1vpAJZpN9F74nn5WFFdzHNamkCAQd0/U/twGK/ErSh2xVrRJ6g8zCQLhtpxg31GOA5p+pXA18ZGUHYLwqpmzYxJslybw0tivZ8IWdwVlOsH2uIGOsu/1XZw77Q6Btg+HBYE0joZ2CGofCflYvE/Kbwb9ujOWWdeO9vUXN1icTRD4Phz0own8Zn5BIJwdUtZbPdf03SCmXBAoOHh9OzQOBMb2AEzPD6NCZ+hoG38PQWAxCg080QA7zrn3iViw2+3woRzG+hOKcwQqhwt/xz1n4AdbUgCkKK+HkmYLLR646NmpA+WsznLd9N8KNjuUL12/4Ax0Xf/VHdJUt1NZl6idlIN9Hdz0tilYJz81RiUI+vqFMnguwv/6GuHCPv+n/FGbn25ueYIgCDKz+3ps9VK4EURq08hvpQ6FNat4UNe/yNDxu1GCQGG/Xl/Qr+6pBYGy7/WxT0ljiKYMJfRh9fiSVz7Q/7SLOMN8r9svbIF69dX5HYKU8WEJgmACvxkqCDQLMzH/D9qzmve0c01vKm3KopC3czGNIKiFRl3PaLtSHT3heQSBA6sbgCiC6wTYwzqXv6U02mEUwY24oqTuPKFVjNDBqfgPQ8VEUxuI2QN8aHs1HiynTGQhexzCTqJPJdzyoG6nwmdkG7g11AdMnTfdNgVWYjUTUVOu2p/DwYrPv/T9Ty8Ch3ubF7SCQM6TjYvftmb6HYLx30oeDqdYUXd3YEYJAo394jsEmvM8sYBoijNCjT0SUpmigiCY0iH0hsCOYfoOgf7XqLU+KPeLtg/cvPhkLuwfJlPsEMRsJn9Ts3NVtyp9h0Dji1pmTS16d4KFcURgF9vZiNU7HhMo5poBOwRtvSYSBJ3x64l5nf9o4JF+FwVBkNoTZng+7NjtKrO9S5GyzS5XV574rRBC/qnuUOdxz1jUk3zz74HVPWWQWdRLMaFpgiQtO3WgnFUtNLBpvxV2qZidet6sbp5oc9blZ/XtVNYlaifpQKyuU3XyuHtXEwfuEIj5nGXd1CkXlU/H85rlycRbMVevNPZMfgGbzPItnSmtp+Qxzh6LPv5tst8b2DU7L96ObWgrPzouZV8JiMJ++4V9OKXPh571V/OVfa+XfZ3mE1rkan/XIS4I9H1YP770iO7omJLsdMULwXm3/t4vZ9nvE9i/VBy2gzc+qPttURN/vg0JZeHfwwtPU/hN2rzRtOWnfDGDf6hYWpxT1jvqFwo/9eyU0renEgSWLxZX4B7vV5ERBMPGkknf8gembrqJv50eGNwL596bd/f2zSsBSVD/YmWjRLvO7U1K1jZx91aS8pcvm3+ztymtCVlbXjQ4zh5oAgInKNQIguYQj3uNpMMuZSILBwHj7dRNP2l/HiXn+fZxtbOSc/hj1x5YTVh1HdJO94rHTl3qoLrHTs091dI1o9/eNbdc9bbJE532NZBDBYGbLlLyDtkgMFU2KULu391A1u0T9u5k28dqH2rb1D6nSxmSfN5Ow5j2W2m3DBWM7BQUYcxo/U3qT3Ifq9sXG5c8QRC6AtP257zO9Tjn3KT2IDsU257tiUwTTbuFczPO91TjQGxWssfmZtxv55qaVVwQBNpf95W6D/cE3eIOQXDcConG3PZvze5rfQOXIgC0GGkW4tozTeWLkh1E20wlCPKPOlcVZ7+YYC6bNvf/kJzab6LBdde5kmOWlB2CnjE3da5p2h9anJTspO7b0wmCdoy27R3r0NP/HUEwPdPkEu1AoPNy7+1G9UTofC5hq8nPzbTVup8Df/7hxphXF2ZvXVNorwjUNckDnyL/8p/n1q0q2vL68AltttqrEwR5+XF2KYGyW558XdlwO8n+IVxbZ39CeTNWWjutCbHTHHfVsd9OxauB/Nbe33hw2+SWkf09aZu/d9LuHuWO57jXQKSgpOXR7xt5/7swN9mWcaeP2QFz8ZnsuQ/GXLyyV5Ii2+NSGfdX5r9FepOVsjfBt1Ly1Vs3Cpy50fy+gHSzkhDYi+OSaoUwYD/JhxPGX7EfFD5epg0Y5/ac6Digmnnksc9f5Om/dlXVh5vAzk/3EQVBPjLXC1WdQDj/HwH/6IwJypXlilNYENjjU+gXjCPjw0SCYPfhu9n9UZ5BsufX/Jrt+r9YaqrGb1J2tgpr1OekXJ8LzTuJgiD8jfS5xq9r/3WoQd8OjUWBf+/GSfHO6S1ixF+Z/AkEweRIKRACENgsgSJIlLZ8pdtrNktpuQ3Hfsu1Taxm6nS9WEHb+3snHXN7zV9Ei3sF6oFqiCA4EGg+AwEIrJ9AcFBPOS+zfkyLbSH2W6xpohUrglpT/TZL9GkeaAgUY9Mn89xKQ4LOoQmk7W7NVTsEwVxkKRcCENgggUA6Wk5Cmca1QWgLajL2W5Ax9FUpdnaM9Suy+le3/WR9q1b8pr9tc5q59YlnOOaqDYJgLrKUCwEIbJrAEnJCN22AkY3HfiMB8joEIKAisJTdLQSBylw8BAEIQAACEIAABCAAgXUSQBCs0660CgIQgAAEIAABCEAAAioCCAIVJh6CAAQgAAEIQAACEIDAOgkgCNZpV1oFAQhAAAIQgAAEIAABFQEEgQoTD0EAAhCAAAQgAAEIQGCdBBAE67QrrYIABCAAAQhAAAIQgICKAIJAhYmHIAABCEAAAhCAAAQgsE4CCIJ12pVWQQACEIAABCAAAQhAQEUAQaDCxEMQgAAEIAABCEAAAhBYJwEEwTrtSqsgAAEIQAACEIAABCCgIoAgUGE6pYf25vXZI/PpxXfz469dsOLFT2XvL833uyvjPfXttXn467W5M2fm8usPc/X4lNpPXSEAAQhAAAIQgAAEUgggCFJoTf5sGbxf/+wv+PzDvfn8m/bjH82zBxfm9umNub99Kb/09zPz4NVeDvaLv9227/WVo60Sz0EAAhCAAAQgAAEILJYAguCopqmC90gdzt70r/Z3X48JgvLv+0CZxc7Bl3Nzc//ZBOTEUYnxcQhAAAIQgAAEIACBaQkgCKblOa60KlXHJAkA95MRQfD3R/Pxt5fBYL83lWhc63gbAhCAAAQgAAEIQGCBBBAESzLKIQRBpL0IgiU5BHWBAAQgAAEIQAAC8xNAEMzPWP+FmCBoDvt2i+yeMQjsELhnA4oirEPDg/6eFeGcMagFxeXu2lx/sespHFAOtMf8EjjsrCfJkxCAAAQgAAEIQAACSgIIAiWogzzWKwiqQN8Jlv2cf0EQ1IF3J3ivDjSbbvAt7hDU74vfNsYWJGV9clrWOYRabHS+X5+f6J5X2P/+0Dx6n91vNCpt6iDW4iMQgAAEIAABCEBgFQQQBEsyY58gqIJq78ah6p1dcxORLwjKINv4twoJtw1JgiD4vvFFinwoWRAfofaY+uYlDjYvyTWpCwQgAAEIQAAC6yWAIFiSbXsEQb1yHqpuu6LuC4J21V5+21vhd36fIHzzkB+8h551hUZYZBhTlsFvICzJNakLBCAAAQhAAALrJYAgWJJtewSBPqh3BUHstw66gbe/QyCnFtXYXAGgFQR915v2iYUlmYu6QAACEIAABCAAgTUQQBAsyYrRHQIh7cerf2iHQJeCI6UMRXcIrHMIWkEQ3yHQ1XdJ5qMuEIAABCAAAQhA4BQJIAiWZDXFGYL4YdvQGYK7zuHfULPDZwiE94XDylpBYKozBH575MPTSzITdYEABCAAAQhAAAJrIoAgWJI1e28ZalN//GtG35rd1x/m6nHeGOna0fpGHycvv/je3ryzfpVY/h0C6X25TLUgaA4P27cUyW3k5qElOSl1gQAEIAABCEBgbQQQBEuyaOx3CKwgulPtznWgoV8qrgN4p8GB3xH4fndldp1Hpff9tB69IMgLl843+IeJEQRLclLqAgEIQAACEIDA2gggCNZmUdoDAQhAAAIQgAAEIACBBAIIggRYPAoBCEAAAhCAAAQgAIG1EUAQrM2itAcCEIAABCAAAQhAAAIJBBAECbB4FAIQgAAEIAABCEAAAmsjgCBYm0VpDwQgAAEIQAACEIAABBIIIAgSYPEoBCAAAQhAAAIQgAAE1kYAQbA2i9IeCEAAAhCAAAQgAAEIJBBAECTA4lEIQAACEIAABCAAAQisjQCCYG0WpT0QgAAEIAABCEAAAhBIIIAgSIDFoxCAAAQgAAEIQAACEFgbAQTB2ixKeyAAAQhAAAIQgAAEIJBAAEGQAItHIQABCEAAAhCAAAQgsDYCCIK1WZT2QAACEIAABCAAAQhAIIEAgiABFo9CAAIQgAAEIAABCEBgbQQQBGuzKO2BAAQgAAEIQAACEIBAAgEEQQKsdT26N6/PHplPL76bH3/t1tW0ujV/PzMP/tiZ73dXJrmFY95dJ01atRYCK/Dt/e8PzaP3xlx+/WGuHscNUzz/7Z25v30Zf/ioT3w0zx68NTtlu45aVenjY3xrzLuLAzGmQrkPXBjz4d58/m1MOQt8N7fxK2Nu7j+bpffEBdKbvUoIgtkRKz5QdJLb7oNPb2aevMpB53b27yjaP9MjH88fmIsv5+3g8+21efjrtblTtNl7d6Y6UuyBCVR97ezNioVwBOkSfbsM8O+qmp9FAv1y7NqrbVguflyby3ZxYKl+UNXrfOpgUJhjJv9GZj3ftyr2P61x9L9ibwAAIABJREFUOOCfS/TLuqpl3YSKK+aS5BGumqeM2r+Tv3C0F1KF/NEqutEPIwgWYPjuZOhWKDY5Dm3AhgXBL1ZgcIKT01CL815GoA6M5pjITwTwogKvWqRL7AL9tKi/SVkwCQsCszQ/mEkQ9M0xUwqDsCCIz2OL8suOP9aiRnBSxVySPCwgCJKR8cI0BBAE03AcVUpQNTerOvHBNL0CGxQECZCWOzklNIJHISAQWI5vV2OQkVaPs7+d/ddceel+H83Hv1+al0mpFIIgWKpnzCoI3BSrPv7DAI3xrTHvDqut9q0D+w+CQGsYnpuYAILAAZq2dT2NNXq30WZb0UQQ9FlvuZPTND5HKdslsBTfrtMwplyhlq164IBujGsdVBAYM3UKxxjfGvPuGOTxdw/sPwiCuEl4YhYCCAILa2hbde4Jq39QDuRgSucOTMpOgiwIQrmSXQbSFmo8R7REXR+Y+m52f2R5vT9tv/bLEOvjbdPK9Tl/emtu7TME1be75ya072b1DKU3uPURbJOSs65q84hvlP62M5dv9ua6ydsu7eD5eqDNuue6/qhpl9QH7W+p/LOq8+7Npdm/z86MlC0rz5KIk20oJSClP2WfEPtk5d9VakrN3j1UJwVDo9tqtL5drxS7c4zTH/u4Nt/SMqu+qU25CLH1Un6Etvxynlk/GwvsMwSSH2jTl9R16Z+zRV9/mtX0y63TDwP+mZDuFJpj6jpE+9jgMbfvXEF37PfH6/zvI/tmbVPBz8r+pfFXrSDQ2kl+rpkjGt+8NLts/OqcLnRsrhojYqGjZowX+353bIt9prCmcBnAFG2Q540bY151D2cX39q7KcMB+46OseJxkmZO1HCd6hkEQUMyNClmD2gnrYFWia3SeAOXeDhWO2jVlfQFQd2pusGrv60cq28/BouzPbgJOyHSZFUH5faBK6nebUezgxpdm3vfddIb/G+P23nRtXmabxhbQIoTpxy0+cFr+Lmbf5U3ZajaFV0Zy338tXlyZ99QIXzbmuA8ISZ8Q1yp7gkkZP8W+p/wLb0gGN9Wdb/I6/n7E/PDvoFHOnTbxzVVECQc8G+EuDMOS3bz/82alO33g37QP16k1KV3HJT8ywpA/ADdCVwTdxLkMdtfbFL10yawuzN2/5LHTV8QqP0y+84UfVMO/FPGUN3cKn5HsFPwuX9flBeJiP2stpXtB8oxotcRlWO8uk4aEWynrk3QhtS+pBEEE8RYsThJ29cGhpWDXkMQ1Ni0q0ODMKd2ku7zrmP1nznYK6/icwfEnkHPCQ5ijq4SBN7qlvv9cH26Kj/yXO8OQcK7wQnYnVRTJhqXlLbNY74RThPwAv1Qm+vVovomlGhwomxXVBDInuXVuy+Y974RZikO2CHn7tt52LUHYPWCYGxbE3xb/JTAJVkk9YwECYIgPN64wUzIlhqx1rNjagUQ+roMHPO9vhRpk+VbfV/0690KpTaoV/bTWvzZOy7Vx8M7XbXQSvHLifqmJG6jY5ZNM7RLkS2pNDcBae2kGLtD46CyzkmpV9oxfmSdapra2CGlDf3xUHe3TbtDMEWM1d9WbV+bIeDsKRJBcAI7BK5jhbbY6qboUpzcgalnoHIn796VwpgDh7/THQR6dmyKT9QTjLa8/B19m90Bqa9zuys+oZWyGJmmfsEH29XL4d8ICwI3WJW2Ye2q1ZNhfJDX2jKwmhsBFxIE4rV97sTWJ0KSrqYs29i9CjO0I7Xz7uHWToD6tqb0CwlwWBBMch1igiAIs3HEeNCWGkFQPdMJsP331HVJ9dn6eTdA61uoyt9R7l6H+rK8Gxyq/JAx190hSPDLyfpmih2ltit2CLR20ix6hJ5xF2ICZtKOJfnr2jFe2pkvPq+s05yCINje0O6MYodgkhirN07SzonxqGHKJxAEFs1Q59AF2MPNEguoug4fXq0oa6DJiRSC496BShrEnXqo81mVE4J2gBXPBZQkgqktTV2VdRHLau0t2q+Tf6i0ibrN1beHfKOZBPwfdXIFgXZQjE5Aie3q9kMnjz2Yp+//3oRKEPStumkmb6vb17zKIOt/y9/5cPpj0g7BqLbqfbvtK8IYZvfrRB69I6J6t6E/GOv43ihBYAVHRZv/T/nbBT/tczUJdYlMB+ogpu9cSv4N5bgbm2Ps4K7+NQivCY34GOJbA8TEhH2z237FKn2n8QpBoLWTZpU/RRBoxogeX9SO8bMKgknaIJxhHCwIpoqxcvCBOClxThweXaa9iSBweHWDEWUgl8bce7p/sPZz/KIBmKo++tXy4GBQfaceVHTCSTuZaAdtbXmCCEoQE/EdgsChanXgI9VPZcg25zRptTAuCFRBRI/AaGuvtaXTXvdcSWBVWb9qnpU/YIcgxa+NdJDZapZaEIxuq75fyKlRM+8QNBNl/DKC6Kp8nboyShCUE/enF/ZBTn/8V9dlKkEwkQjT9WVtP9X7Vis2BwgCxQ6Brm86/f7X18UPgarf7UmRasystZPmOa0g0I4RPb6o8wth3KzLHLtDMEEb1OI6q7M2ZWiaGKsLvhsnafuaMgaY6DEEwUQgxxQT7pSturQHL3kCT62B65BuLnxbXvx7UrpEqD71VpkbCLjCJ1yfbsmh56TvaNssvBtMH/EFm9vyUBDoE9K2WXizujlI85PwIX/z6qlNmYk+N7xdnQE8sLo2ShDUonDULSSZPYq6xc/vyOzD/uYGLfq26vuFPPnNLQjcFfnsMKXz3/7vj8b8lv179SvGwZut3B0/15aSKA8Iw13kF4KDY2EgsAmNgqFy/MWV+PiiGfl1gZ+2n+p9yxcEKe+G215ySlmwa1f5L3fX5tpLG+mjqNgh6BlHnLCw3DnsW7zRCgLteNjXtOjYXb2srVPEGT0/nKAN+r4kZQ20YufOskk85tH0OvcZO04y1Q5kfEFkyJeGvoMgGEpuwvf8wbq7zeRfWVkHEM6AWHTavXmXX68YrZ8w4dcrsvZgJfxbPhi/fZynReyKr6R1nrru+ZvOQbOfzrWXUn3q7317V97IYH2/2T7vbMfpbhmKvyuJM+HfPBskTuiaNo/8hloQWNud3WAsb9Nbs/v6w1w9Lqb8Kj3Gsp870GvalT/zx858r3+Myg2yhMCu3fIemDIk+U/g3/q7lO3X9pNSH82uQnXTL4pX/DbYk1RqW5vdzjpgDvSL+jnvgGReJXXKUN0XBgRpWb/vpDo2KQTOqnIn/UoeA7tpW9n4ZKcj9N4yFE4T8H3fTQULjMd9DtPYwh8DC0+whIlnx6pcdxzu+5xOEGQlaPpp0pgbvmUoPubKojHEIzrlWb6Qcg10k/YhHKK2v6m1U9OPQ6mr2uBbOx72gpEXHcsx3RrjtXWKGMHzwynakNCXvF+qt8fEjkgbH2NF4yRlX4v69YQPIAgmhDm0qG6aklVKbwpIIABR5pT6B2yr70r5fE6ZUn31A2wrRG7MRbbK07ZXLCOQXyivnDplFVvDxjrAKW/TuXmURT28d/OypaDBDYAkuySuAkTbPO4bekEQanP2755vCnVyfTHWrk7AWtky9hsP2d9vXnwyF9nvKjS7I33b8oG/jfPpvK6C8LPaIwZ4VRNzf/tsnhW/DdHZ4XF5pbY1r1WxkhrrF9JzN+b5Pxfm2j5k25vuMEQQlPWSx7/ADmJnkJX6ld9Hc/ZXX7Pf3vjnuSc223Mm0sp169Pxw7eJfTxvh2Df73dPzOtsBdk4OxUyI734UgsCqV4V82Fjrrwqq/XLkH/o5xvbYQYIt9JDy9XciCAI+3Io9cyum2JBQ0rP0YwR0cAkIIYj1/QWxY5NGQr0A29Mj7VB6kt/7s0jITXM9b3cry/+Lf0+wbgYSzWnxObEWLsn/juCYGKgFBcjIAflsbf4OwSWTCCcFmZvE5c7avy3QALBlK8qWFJe77nAllGlhoA+sAfaCggE0pFW0LLZmoAgmA0tBcsEEAR4xvoIpBxsW1/rT79FwRV0zSHQ02/+NlqgzZffBo31txJBkGxjBEEyMl4YRwBBMI4fby+SgJTuVFdUnca3yJZtpFKhMyBZ85W3d20E1Mk2M/0g8sk2lYrnBBAEyX6AIEhGxgvjCJTbtvs/783n38aVxNsQWB6B0CG95dWUGskEvIPJgFoBgVLwuWczVtAwmhAk4F5+AaoYAQRBjBB/hwAEIAABCEAAAhCAwIoJIAhWbFyaBgEIQAACEIAABCAAgRgBBEGMEH+HAAQgAAEIQAACEIDAigkgCFZsXJoGAQhAAAIQgAAEIACBGAEEQYwQf4cABCAAAQhAAAIQgMCKCSAIVmxcmgYBCEAAAhCAAAQgAIEYAQRBjBB/hwAEIAABCEAAAhCAwIoJIAhWbFyaBgEIQAACEIAABCAAgRgBBEGMEH+HAAQgAAEIQAACEIDAigkgCFZsXJoGAQhAAAIQgAAEIACBGAEEQYzQqv6+N6/PHplPL76bH3/tFtqypdVxzM+fj3l3oeahWhCAAAQgAAEIrI4AgmB1Ju1rUB6gXpjbpzfm/vZl8eDH8wfm4suZufz6w1w9XgIMv45HrdXfz8yDV7fm/MO9+fxbXpNSsFz/PDc3959NSTHwn/fuUVvCxyEAAQhAAAIQgIBIAEGwKccICQJjBbzHBnIqgkAhohAEx3Ymvg8BCEAAAhCAgIIAgkABaT2PLCzYFsEurI5jgvox767H6WgJBCAAAQhAAAILJ4AgWLiBpq3ewoJtBMG05qU0CEAAAhCAAAQgMIAAgmAAtKlfKfL495fmcndtrr+UpZ+9qQ/+1jnrzletcwD5X8qzAH7N2tz34invDMH+94fm0XvTniH49to8/PXa3LlFNd+ryvA+pcipD5Qdq6PfqrIO5sN3s/sjz+e3nxDqUa3Ud8vxU35KFt2Wnz89N7df7DMENevud7TvtmcQ3FYpUpCmdjzKgwAEIAABCEAAAhkBBMEC3KAN5v1gVjz0Kx50fW2e3NmHXKvA/ZdL8/3uypR3CikEgcvD/VYe1P/+xPyoDiUXj1fPtCJGgirVRwquNbsYliixhVEd+Nv/VouQjoCqRJax2NTP2bwsIWGLltImlq2S33XObEjvL8AvqQIEIAABCEAAAtsggCBYgJ1rQdBdKZcD+LK6VUC7a28LEkNwN3BNFgSa4LyvnlatQvn0VTC8a27x0Xwz9Iwf6Hs7IHWVivrsm52R/uf6dwj074bbVu8w+D6wAAelChCAAAQgAAEIrJoAgmAB5vVWnOs6hdJ36r93Vv/9hvjlpu0Q6K8kjQfxUkqNXeN2dyFelrTTUZfltjmUSlU/XwfgQRsIQkb+RjhVqQnyK3uaJh3MF0z9uywLcFaqAAEIQAACEIDA6gggCBZg0lgwGqyilC7jPWwHqgmCoCcNKBhkO+ca7KpoA/O+YL8tLywauiwD5y+agtq8/ZgN+lKG1O/23TrUJxYW4KNUAQIQgAAEIACB9RJAECzAtrEdAnFF2a63mCevy8+X012EHPvqe3JqS3xVP5hW4/GPl5W+QxA/8KwO6rP6zrlDQMrQAjokVYAABCAAAQhsjACCYAEGDwajdc5/JDWoPtTrBpNDU4b6gne5roogXnXwODeGoqz6GeMG+v7BZW1ufug56XyHy0D/rnywumj14n4xegEdgypAAAIQgAAEIHAQAgiCg2Du/0hYEGTHh+urMIVrRt8+rq4mFW6pkW8uUqQMRVJX6vp4Of95E3tShuzrNv1rRt+a3dcf5upxqiDIn69FQZseJF5japxrPYt27s27++pmpua8hl9e8ZXm0LOw85LwrmRP0cbcPLSAnkkVIAABCEAAAtsggCBYgJ37BEFePflArhPgunftZ7sKNy8+mYv3O3NTB72aW4bEO/vtwNv/zYOzNzfm+T8X5jpy61HwDv7I1ai+iVphc2MuOr+/IB/KDfx2gitgBIbf756Y18VvHtybz7+VNRHtpXw3ZE+v3giCBfRMqgABCEAAAhDYBgEEwTbsvLJWatKKVtZkmgMBCEAAAhCAAARmIoAgmAksxc5JAEEwJ13KhgAEIAABCEBgWwQQBNuy90paiyBYiSFpBgQgAAEIQAACCyCAIFiAEahCKoHyAPH+zzavP7UEnocABCAAAQhAAAIQKAkgCPAECEAAAhCAAAQgAAEIbJgAgmDDxqfpEIAABCAAAQhAAAIQQBDgAxCAAAQgAAEIQAACENgwAQTBho1P0yEAAQhAAAIQgAAEIIAgwAcgAAEIQAACEIAABCCwYQIIgg0bn6ZDAAIQgAAEIAABCEAAQYAPQAACEIAABCAAAQhAYMMEEAQbNj5NhwAEIAABCEAAAhCAAIIAH4AABCAAAQhAAAIQgMCGCSAINmx8mg4BCEAAAhCAAAQgAAEEAT4AAQhAAAIQgAAEIACBDRNAEGzY+G3T9+b12SPz6cV38+Ov3aqJfDx/YC6+nJub+8/m5WQt3Q6/yZBR0LoI/P3MPPhjZ77fXZlVjCB5e17dmvMP9+bzbwpTnWT7P5pnD96a3dcf5uqxoo0Lf2Sesd2Y/e8PzaN/nq/Htxdux/HVy/36wtw+vTH3t9PN8mn1Gtq3jhtLIAjSrDzP09Xk0yn8oM68hA40D9pOqamTvLpKG+Gn5rH+B8vg48xcriSYGmuxuYKxsfWq3y+Cuvd31f+M2a2clK93+oDCa/+31+bhr9fm7qDjeCKt2cbDQD3qee6Xy+mD6xnbcjTfrn3IxjkHu0S36X+86js/p150q75a2fnsTXjxsuzru4kX/RIhDfbH48YSCIJEO8/xeHeycr8Qm7ymqNFxnXCKFpRlVIORkSacOZX3WvhNZ4m1l1QGCUa/grxyIEcLmmJcpaCqficQXA1ZEQ4KgiUHcIODlhh0+e91nzFm2JwW9rE5x3Zjjubb0kKhhVa9ezXMXAPfqgXBMBtHP1ozCQntor9/Ms+PvVAzuG8dN5ZAEEQ9cP4HSkFg/NXGZkCYqXM1TTuuE05HuEcQfPtoPmZJQi9n2RpfC7/pLEFJ2yJwtKCpF3PVL420Wpn97ey/5spLcdqbj38b8/K3tMSnZbY/4oODg5Yhvl3aYv/03Jgvt8b0rPCGSg8ynnVsP74g8AJ/S+QuUxQM8Y9p3tn//dGY314eP21xcN86biyBIHD8MG1reSInDgmCvPiYIp6kCsd1wkmaUBTSt0Mw3Vf8ktbCb05GlL1mAksMiA+5i7PE9kf9bXDQEi3Zf6D41j5b9PpszP9k6VgDUkqOxfhY363nfjHor0XBknegBrjJal4Z3LeOG0sgCCwPDKXuzK3CgzsEdpDrDqDiduLQnYSAE4a2LJ3tOonbEGbtlnJ3WOiUVQ2EuzeXZv8+y9EtHs1WAD8Yc5EdAnT/a96t3uuuTNXbm9236vzEUC6iP0Esg1/eCpGhM2lMZa+az+Wbvblu8rNLln2rWjZt3XO2X8s2M0k+Wa8ce97SyTsV21d9R+6zgboNTJEoateXNtCpi58zG/RTv5eo292I7p8dK5rzp7fmtnNYX8fYhPpzfuh/VNBTfV8bMIVSi7z3JRufh9vf8cuQf+QsLR9XjrspwZPY57PV+ttstb7bB3X9K+Xbzbi0L1M5TXWew58jql2EbGzfZWN7OZpnXP7fc/Pp/9ZjffvlJo9cHNsDY2Ftj9rv3EPjQiAnCoIZbOQxjQSV4jmmgB/Hbezsoonta58pvp3Z83J3ba6z1MnCUtWuj5w+l6fxvDP7X7PDvnZDVf2rLbseLzTzuJeaJo41VWVGnPVR9y2VbRAEqWPLTM+HJrDsc9pJZWDN+gVBPbBZE4Z4YG3M6rjghIHJ2Ft1CwzG6Sjy+r82T+7s23+ESd3qVP7Bor6UofKQnz2QiANqPhD++6K4nWCUIDg4v+o2jCwwlwRU0+7J7NV+rzPwiu2Wg7NgwOr0t/y5m3+Vt70EbWbfCBNrY/7335+YH/YNFMJhtXag94W21GfFFelRQa3gz0Lb1H46Wbvvmsm/CfaKoMAKKpTfqif4XNh7/XkMu6RDvXJqUW1/u17Sv7Ui3A6qhDFVE2xqx42UAVYq0wr47PFC1b9Svl08Wwf61UHQoG2sOVgI0MIpQ/7YXtvJGwv/x5jPeZrYGEEwh40kphFB4LdRN87G4o2mT3pi9pkx/ylvpJJ9vmxE8DyN08fDfckZb605WRIE6nFXjB1GnnlQ9y2dbeq+cqwbktghqDtiaIUo//uRBYHbgfvPHOTbsqnXyPmTV3jQcBw7FnwlTx7dF9IO66UIgrgSVwda1YRnd+LD8wu3vV7NKa6EnNBeoTZ6NgtNbO6kHN1mDdnMuRVmUBtDfaAb/Nbe6bc97E9icKLpF2I7/Btw9H4qfTSl3REfi17nq1940ODpfSZFEAT9zr0xJaX9flvDK83tmK0eNxIA9c8X9g6Bsn8lfDt/NCye3bMdsjCrP6cXBIrFsRGCYA4biUhj46H7d+U4GxMEsb/biwBSJkBozvbPjbj+Fp+TfUGQMO6G5oUY5x5/V/ctpW0QBImDy3yPL3eHwHW6UGpNzSY9XUc5eRUfCEySP+cRTvrBxaqbdMuQOxgogkZ9oLUEfj3+W9itnnytlICRQjc0GLrcpC1Vux93U7SEw/Ua0d4R7kPamCKKhSCnz5+E3QfdOOasrBYvheqpSRlKEQSSHcKTry7POiwIhhwynUoQ9AVA3RXzlPbr7CSP7dIh6OHXOQZt4wYpfYtinf6l897yqUBwLgZI/QGhXhDoA8vdgJShsK8Pt9EUgkA7zvbuyuUjjOK3evqe0c/Zjm8o5mRPEKSMu6FnQ+JQ4ebavqW2jTC+K6ox2SPsEFgoQ0ZLD7DT7BNT5F2n68tDzb875ByBO4D2r7BInaDLbuAdxMF8aScVwUn9aWkn7BAoVgWGC4Ij8EuczKewl1YQaAVsdCLqy6fPnaD3HEHXJ4N1ssro65fe3/r8STPRBYaMup6laPrf8gd3nD6u99NAXrXDLroCqkzn0DCWc4LTxk/x6YR0oz6/67IYJwjaQKz0xf9T/zZCwzN93NCQ0gYtvedVhP6l+bYdfIrPd3xpIkGg6W+DdwjmsdEQQTBuodCJI5Q+WNdzFkGgmJO98SJl3D2iINDOgewQqEaVwz3UDZSGBNfpde0XBH7uWTRwSq7CgBVu8a7/7MN10JZ6SCewxa9fbehZjcr/tLQdgqn5DV1ZGGqvfO0vcDuWvEPQs/Jf+WtMGA8OHp021n28K/Tn3yFIX1go62TcA/TOr2xrBcH4dusDYu23Bts0OsbpV2vjOwS1mNS3P7iTk/3irXQQMx5oKdJgekWlsEgT2CGYcrcmtjLaXcCaSBBoxsLBgqBvBX24jdIFge/f0fEzsuhQj0+a+GIWQZAg5FRn4rT+fbAdgvgciCCIDuzrfyDckVsVbwcT8mQ7hlM4jzh4C0xPwN/JWddWK6D0ZxME9aTRkzYj20XKc10APy+VSwu+muCqG0BSbl/XCoJaJPb9umRR22hqjS+Ota20ffJ/xS3xkYKgx5+6aSfaGtc84meCtH4qT+Ip7Q4F2X6f0H5rPkFgHXoPjFXNneVBv3P9Td9+f2L3z35InhAc21PORDgFh8qsVy3bMX54/5K9OhIge9ynEgQKMRgIPn0mvgCYw0apgqC7c1iN2tHxMzT2dFMTNfHFEEFw5861nk8r/M+zW/gdb9ydYYdA3bfUtlGkuyVMIamPkjKUSmyG5/0Jvbud5wdS9QTs7GAUDr8375wVxHiVJSeUviH8W+7of+zan6IfOnEJW/ztNps2ZShwC420Q5D9W1N+EzA4HLw61e3PC4zcKFIHiJ30jhn5WQG1ewi+8K9v74qbk4qgewp7Zd9TC4JGrLjXkeY83ppdcwi+5dsEKY5QbFYcnSAvt+Xbx9UtJpE21mW0/cqy69CUoYZHdl+OV0b33+L9sX7C9jf7LanfZ9cyNhOu7KfTtdtqTydVre0T2m/1CoKEtJ/egPRn/lfpWk//XE0bHPcvxjQ2DrQ/fNajvCi585+UNhMbN/RO1OyOZvePVdfLducXabHJTb/r9C/tt6Mrvm4w1x8MxQJxe2ejGSeaPuGKk5pB6xd2Wod/85Iw3mtspA4EBajCIlkn9cQTurLPlr7YjrOuLT2ujU+3bNyxfpAgyJvojVHdsUw7J4u2jo27MwgCNw0wu5swuy0x/52N0p6x8cS1DTsE2sFlxc8Ft1V7D30GgoXUVJ2Ca2gglr7hbD1LuetDD6u6OeJZOTcvPpmL99aBydgk49Sn/3cIpJzqbvtc2+RB5GfzLPtlafsQ50L42aLA6S8uh05YMtBeekGQVyZw9sX7tuBzit8YEK8+tRkIV5leVPdnF+Himxvz/J8Lc727KYVTXuOeHwzsb3s36IvujATHNmH1y/JvMZCrypL91Pf31HYXo0Wxw9JWumjfr6+zH54ynd8z8J/zGc8rCMo6yuOrm0Ij+aecMqprf2jnpXstcFNWxz8V427qfCiMrd/vnpjXeUqac7BW5pWePqvZGes+E1sd7XKJ/Q6B346AkK5Z5jb4jzHPsjNq9mHj3t2ujh38tCzNanvQlJozdd7L8XFWsm/wyl+rfPuZIYLA1GPsz7bQ8C1FdsPiC4IpbfJS4kakDBW1VPetuG0QBKkDG89DAAIQ2ACBcpLzbw/y7nXfAIvTb2I3LcNuT9jOp9/qrbdgUPrs2qDFFvHW1t4Tbg8pQydsPKoOAQisl0BwFU5zG8d6sZxmy4JB0cQHUU+TzjprXdg8/4Xe1N8FWhkOBMHJGBRBcDKmoqIQgMCmCEjpeDWAQamBm6K3uMa6qUZtBdPTcRbXOCrkECiF3qcX1bmmLfNBEJyM9REEJ2MqKgoBCGyTQOiw4DZpnHyr65zjgWd3Tr79NGBjBNzLIzbW/BNqLoLghIxFVSEAAQhAAAIQgAAEIDA1AQTB1EQpDwIQgAAEIAABCEAAAidEAEFwQsaiqhCAAAQgAAEIQAACEJiaAILfM2QkAAAfiElEQVRgaqKUBwEIQAACEIAABCAAgRMigCA4IWNRVQhAAAIQgAAEIAABCExNAEEwNVHKgwAEIAABCEAAAhCAwAkRQBCckLGoKgQgAAEIQAACEIAABKYmgCCYmijlQQACEIAABCAAAQhA4IQIIAhOyFhUFQIQgAAEIAABCEAAAlMTQBBMTZTyIAABCEAAAhCAAAQgcEIEEAQnZKwxVf14/sBcfDk3N/efzcsxBTnv7n9/aB7989x8v7syuwnLpSgIQAACEIAABCAAgcMQQBAchvNxv/L3M/Pg1a05/3BvPv82bVXmEhpJtfz22jz89drcWS+dvflufvx1DImyN6/PHpnrn9OLryQmPAwBCEAAAhCAAASUBBAESlBLfywcmJcB6qcX8wTIixAEleCRbHR4YVALgjNz+fWHuXq8dM+hfhCAAAQgAAEIbJ0AgmAlHhAMzL99NB+zJKGXMwWmSxIE3R0QAvOVuDbNgAAEIAABCEBgZgIIgpkBH6r4YwXmx/puh2soJWrGVKlD2ZXvQAACEIAABCAAgbkJIAjmJqwovwyq/Qe7K94fzbMHF2b/5tLs3l+b2+LxLC3l/z03n/5vN3+++EudQ1/l15tOTn29et79pvvOzj1zIATYoiAQcvqLL/1yGT58XKf9PL0x97f2sWdFTn5EEHjtyhjuM4blmQMr119MPRJSf8Tn2nJEJqG0Jq+9CofhEQhAAAIQgAAEIDAhAQTBhDCHFZUHvK/Nkzv79p8y+L/tBNDVv+UfEYLIcMpQeeDWFgTls06gmwes/74og/EqoB8mCOp6dg/VFrcRvb9rhYoHKxD4i4LGeTkgCLx2WkLFO1tQ/63DtqqTsYRM8LlnxvynPDPg2aJ+xxFEtRCc47D3MF/kLQhAAAIQgAAEtkgAQbBQq/sBvhxo19XXC4KqnL6V6TGCIJimE1/pr0WDHSCX/2b6D+gGdy4c8RQIzHOGwe8UZe+b72vq49oi/I4k/BbqkFQLAhCAAAQgAIHVEkAQLNS0QUEQCOTVgkCz4j5CEPQFzOLORIe/K1aEFXrJXtp0nJ62h9K26s/VIkVzZsJ9JnYDFFeULrQTUi0IQAACEIDARgggCJZg6OC1mXbaTf/KvloQaA7ajhAEfQFz8uq6Rrzk9tO0KX8uWJ58pqJ1jTq9SidQugz639EIjCW4KHWAAAQgAAEIQGC9BBAEx7atmJMu5KFnl4cW5wpOfocg8oNdVnB/9VWRLjSJIJB4y46hCeCTdwjsMwrH9ke+DwEIQAACEIDA5gggCI5t8t4DsTPsENTCou/Gn8BKunQI1guQq/b4PwimzZevhc+ludxfm+ude+uQYLDROwT1GYK76K85S+cc3BrJZwiEsgNi8NguyfchAAEIQAACENgWAQTBse0tHHRt89n1giAYqArBfVN+s9sQyN3/2d5EZOfY24d+/RXzNv2mfU76tzD4ui35E6obeCYQBNkeQbkDk1/lav/CcMFvb97dV7dANTcVtc+5qVDhA+F22fL3uHno2B2S70MAAhCAAAS2RwBBsASbu2cIstX7mxefzMX7nbmpA9FIylAb0JYN6v8dgjpFxm68k8rj/pZAvqPwH2OeZVeY2teRyik0Uk6+cJ9/iH3z7Uh6Uf3+JIIgL8y62tWum5umJfzOgr0jIjORyvbbhyBYQoekDhCAAAQgAIFtEUAQbMveJ9JaxdWoJ9ISqgkBCEAAAhCAAASWTgBBsHQLbbB+mjz9DWKhyRCAAAQgAAEIQGAWAgiCWbBS6HAC8R8wG142b0IAAhCAAAQgAAEIuAQQBPjEsggU+fmfzHP7YO+yakhtIAABCEAAAhCAwKoIIAhWZU4aAwEIQAACEIAABCAAgTQCCII0XjwNAQhAAAIQgAAEIACBVRFAEKzKnDQGAhCAAAQgAAEIQAACaQQQBGm8eBoCEIAABCAAAQhAAAKrIoAgWJU5aQwEIAABCEAAAhCAAATSCCAI0njxNAQgAAEIQAACEIAABFZFAEGwKnPSGAhAAAIQgAAEIAABCKQRQBCk8eJpCEAAAhCAAAQgAAEIrIoAgmBV5qQxEIAABCAAAQhAAAIQSCOAIEjjxdMQgAAEIAABCEAAAhBYFQEEwarMSWMgAAEIQAACEIAABCCQRgBBkMaLpyEAAQhAAAIQgAAEILAqAgiCVZlzG43Z//7QPPr2ztzfvlx4gz+aZw8ujPlwbz7/tvCq9lXv72fmwR878/3uyuwO1owx7PJ335rd1x/m6vEUFd6b12ePzP7PIXYc865b9zFMpuAwVxlj7DXm3bnaQ7kQgAAETo8AgmAJNvv22jz89drcPb0Rg9wiAH6/Mzf3n83SQ+DBOPOg89WtOXvz3fz4qy/sLAOsa3N54AB1QMsqu5pomwaUfcBXPp4/MBdfzlv/i/jrJFXz2FV2/2nVI/ShypfOpxJiY+w45l23fVOWNYmRJipEsFfpc2fmMibqprb1RE2iGAhAAAKnRgBBsACLlQH/XVETKSDekiAwAVHUmglBcGiXDQqCX2YUZUFBcIQgcUwgPubdzQsCY6KiDkFw6OGA70EAAislgCBYgGHLgD8TA7/cmTthBXQTgkBtBwSBGtVED3qCYKJye4sZE0hPHSSOqcuYdzcsCNQuNrWt1R/mQQhAAALrIoAgcOxpr9ZnIXp8y3oCf6gFweWbnbl+76fNIAhsyAiCCVwuqQgEQZnSNyj1C0EQ97UxQf2Yd+M14wkIQAACmyGAILBM3RUD7R+i29Yj3aURBFm+7JPf/dxZWRDUOdXux3UipgzynHftdJ06T9wt3kkTKcrZX5rL3bW57pTn1qM8EHlrl2eXJQZO0jvn5jwr5dY9Q1AFBt3qOnWovrF7c2n277MzG8XDVU76iPYGzz0IbQr5WPzshDH9NhNY2e2rwNS+dPlmn4nPkkCbpiX5VMb7acbbPkNgqm9Z/iKWW33T7T9iO3JL2Dn/AjtJmEg8z59mHvLltlOe6pt5fQU/OsvKM1l5UUGQ8K5Yn1gKVkBc6Nom27bvXFJRrrkx3x+/bVIa6/7ljYma/pe9rLWXPSbWB8O17+Z1nIvJ8P4rj9edfq9h2DeGqds9csLidQhAYJUEEASNWUMBVfZAbKIe6Rqdyc/4B4wlQVBPeFIQdRepbz2pee/+jzGfi5tkahbdA5z1e/Yk1k681rP1xGYFjNFV5mAAaAeK1qQqiInuoWxhJ8EK+r0APKvzw69XnQPNEiexvSH7i216aP77l337je6wbNRm+bd+f2J+2DcvCQe124DGF45q+wYFQS4wrHJr3h1/zNv72jy5sw/IV/4WEYiqswxWUNX6t/Kbkt/3+UzH7kKfCbwbtGVsF6JHYHb92a+LFGDHhi3Z13va2Tn/09P/bDuL9qqFg2l3aCVf6n33zjmPNRWTYf1XPCSd1//fF+VFEuJB/bQxTOq/mTSqFmIUh/FjDsHfIQCBVRNAENTmDa0Q538/pCDIrkl0Jw9fEPgrtHUzxGCj48KKlJvgNrwfvMqBvv+NdEEQaqNfdjDYKdqx7w8q+rq3SqT0FKBMF4kHawqbidUIreS7wVL+cvgbvu1C5VoBXFWfqN1Dzyl2CPrt3t0hkPB4dQv5vcaO6ncjnLPdtuD1rqGD1tKNW44YjPuYTyhkO7csbf9LsVfaN2xb9/SVCZhIfhRnGx6vu+O233/KHSvNGKZv96ojGhoHAQgMJoAgaNAtZIeguDe9u2Jq3GtH+wKU6PWdIyanvGbOdYChoKFOJWqCm8BqXoPfbVOwjSGxEe4DzUqxJrCzi1EEpb09T/m9KQIKuR76wL3xOeGWpzGCQE53UwSfCvZBsaHMK3ffD9pBYUf9uz3jTIGlZyXXq0dPX3ZXnNU7Ha1ttHxD6Tl1SXX/05ZXyNPqooX62lH9u/MyGSQIFP6jZVjvJPjpawntHhwu8CIEILBmAggCy7qh/NBDniFw82Xzb199dX6HoC/giU0+sb83Qb8cmGgnak8QFJy7wVAnzWGwIAidpagN66ewyLng4XL8FCnl9rvEOrgT1XP2Q2Gzgq50LiT/g5frL6xECmlANcHJBYGYK+0Ew1MLAsU39UG9PyWo3+3bicyL7duNVPcRq69JaTw/q/pHrvjVBeH6/qcrr6ybdpypz3zoRL8UNDv1j117PKT/RgWqnmFQEPSOEfFFoDUHObQNAhDQEUAQOJy6okB3QFeHOvyUHEy0uwQ3Lz6ZC/uHyRQ7BGERE58c+las3UldvUPQaX49AfYE68k7BIogvYebmOOrCEp7bR9a0XWCvil2CORUsQXuELgr1xXA0PkAW7xpfS8UJLo//HfUHYJY4Ck51oAdgtBB6Fo89i12aAP4wWlhdRuFgHmwIOgRtuHV9bIicSbCWRdBvHimUwh6LcMxOwTRQ/FjJzLehwAETpoAgmAB5ovl1p79cpb9PoH9S8XyxNROan1CRnGINZh25H93mCDIalpNkrv6Zhll8NwcvrOC6vi5icrICSKjeGNqQRD4flwQxG0m2yFFEIS+IR1K1JfrpQwFVkuHCIKQ3b3ATvvNgN/X3+m9CUr9btyWwSHJ859wWfE+Udpw3/Mr2qEA2RXP8W+VLVLbSwiy9e/OyGRw/w2P17WttQzDgmBMuxcwCVIFCEDg6AQQBEc3gXCjRlMneytZvvHHTwfJbnqJrD42uyBNUO3m5bff7d7U8shc/+xeD6kTBGV5+z/vzeffysZ5K/LB4Nv69WY77aOzyl4HrdI1o3vz7r660Sa6Q2C1LZBzrV7JEwVF6KYT53YewSdjNivPmdiHha30LFXKkHUlZP18Jz3C9r8RgqAu07Jfm+pkfUMjxpr61e91Uy/cNBL79i3xm01KW+tHdhpW/9Wwvg8G3639WNop+vauvHVG+k/yX6ks4d/yurx9/L25RUsTgNr1r1k2ftgZY9L6311zTiJgL0EQNAsBinebq2Ol24wcv0tjMrz/Niwbbm4fSmMorvYrfYGbhxYw6VMFCCyQAIJgAUbpXSFugmA/JUY686C5z95erWub7+4qSHmt/s6DThDI+e2xe+ebm28yEVL/15yp+Oe5cxtL4LCm8NsK2jME5x9ujHnVXUUdJwiyVng5yJldPxhzYd8kEvBJ395de9gBXF7E2Zsb8/yfC3O9u2mCzNhuhF9GFkT++jq76cSY9s76EYIgr5ibz58FaZq0OJG9UNb3uyfmdbb6bezfNdB80xJx1S80ZP+S97sr899M0H560QbUfQG76t3AmYbe80ohQSuV5SwKDBkrGt6Ff1q/ICKec1D0v4DtJXuJfqq1tfSd/N8mYDKm/7p9yz9ArmAYSz9S+AKCYAGTPlWAwAIJIAgWaBSqBAEIQODYBJLE77Ery/chAAEIQGAUAQTBKHy8DAEIQGCdBBAE67QrrYIABCAgEUAQ4BcQgAAEIOARQBDgFBCAAAS2QwBBsB1b01IIQAACagJFHn/fIWd1STwIAQhAAAJLJ4AgWLqFqB8EIAABCEAAAhCAAARmJIAgmBEuRUMAAhCAAAQgAAEIQGDpBBAES7cQ9YMABCAAAQhAAAIQgMCMBBAEM8KlaAhAAAIQgAAEIAABCCydAIJg6RaifhCAAAQgAAEIQAACEJiRAIJgRrgUDQEIQAACEIAABCAAgaUTQBAs3ULUDwIQgAAEIAABCEAAAjMSQBDMCJeiIQABCEAAAhCAAAQgsHQCCIKlW4j6QQACEIAABCAAAQhAYEYCCIIZ4VI0BCAAAQhAAAIQgAAElk4AQbB0C1E/CEAAAhCAAAQgAAEIzEgAQTAj3OUX/dE8e3BhzId78/m35dfWr+HevD57ZD69+G5+/LU7xQZsoM6n7mNKE/39zDx4ZczN/WfzUvkKj01NIPe1t2b39Ye5ejx12ZQHAQhAYN0EEARLsG8RTNx2anL25gBB7rfX5uGv18Y03yoD7Ouf5ycS2JTB5u3TG3N/Sxi2BFf26uD52FS1XJav7n9/aB69N+aSYHQqA6eXU42j59YCx8fzB+biyxl2SafJGxCAwMYIIAgWYPAymLgTa2JPbpNXNSgITmUCRRBM7hNTFzi7IFiGryIIpnacAeUFBYExhx1HB9SdVyAAAQgcmQCC4MgGyD8vBxNVsGtmXK2fLVg7FFQEwaFID/7OyfuYruUIAh2nWZ8SBMGs36sL34iPH4QlH4EABI5GAEHgoO+u1h9m9TEUTMy+3X3yExmC4Ggjh/bDJ+9juoYiCHScZn0KQTArXgqHAATWTQBBYNk3lLoz63ZzcIfAGFkQ1LnTjmM6efTlu77zdtoiBGvle+2uRJxJvZPhfqu7s1GWszOXb/bmuk6P6sv9r+rmJlJ1baEUBKqyJK5SG7o1Ov9wY8yr7sHsguH+0ny/uzLtUeeqfOP8u3B+xBhHiFb13725NPv318auQcHDuGdQ5Pe9pLRf3Do6NhS/azFJqHt7TqXeEfNT5LxzM2L57fddXy1qL76T/bvUPzIbXe6uzXWnn7iLACn+rThDEGlTRqc6x+P2J41PVGymsJsR2m35S8He3Jjvj9966Y7eeBnof8bxv7rfxG0i+9D503Nz++W2kx4kCjXNeNDT52xfksdZq49ovrXuGIPWQQACJ0IAQdAYKjTxZw/EAqeRxhYnrTpwEAN9JzjwVsbyoOK1eXJn33hStc9ui0IQuE3zgrC8jN+fmB/2od6qPnaA1woLza6LUNesIn4AqBEEurKiK7z1xG7zs4I77yCjRhDUZXZsLAgHK6homdr+ajGVyszq+fDrVecmptoevWJX/G7lEYl1twXBx/OH5r9/2TfBCAeEg+U/M+Y/5buiL2aH5O+kQDML+v3DpnlbBIFj2yPJvyOCQN0mJ+dd8j2NbbLWeSJLaTdRbFmDQRsI26JZSnOUUx9r/7PrJ5YpjYMJfdHv17rxwIh8az+VxZnt4yUq5bdGzh+8DgEIQGAKAgiCmmJoFSv/+0EEgWLFtJ5gvJX1aqLa9d+2EwqgusFad4eg42TqLXk/UJcCgKADh75Tr9o1t4goBIGyrJggCP49dJBRIQj6y9y3N6ME0m7k9wM7ES5sTSqPFHhV5Yytu1sdt7yYPYpwS9zNkoJyPzCTA14lO6Efauobfybsz56A67FNE8wK45bWbjpB4J9v8soPjhm+CNTaJKUvquvjji2h/iG1J+XZ3HG9cWyKqZwyIAABCIwjgCBo+C1lh8BKGXAD/z7RohAu4wSBvNolu19IEChSKrIC+25dyr/nrZL3pB6py+pbcRWCz6bdIwRBKK2rLrtZ0T6yIPBXPutgPDz4xOoeEwSxgFQSBOF3tMFn1S5PzLm1Hebf0Tb1iTR3163v2Z6/qX0usPtVkwi2xekPfSLITYkMlemm4Gm/nddVFpryjW6dsSXEUArme/un4lvj5nDehgAEIDAJAQSBhTGeLz8Jc68QadKsJ+5OSkcoP7ou0Q6Mg8/6+a2aHYK+A87BIMOqT3x1tMWiDlqCOyZDyirCh27+tlX/lCBEd4YglCte191PA3IDc/0OQfhbvb93EQwsR9Y9KGzrNutW6rs26X/HtZ82+GyFh9D3k/xb0aa+HTjXFoMEQYLdiuZ2F0n89B7hBjSnDX0iyPVfrU1S+qL8jRFCNkEQ6MexeeYVSoUABCCQQgBB4NDqigJNvnsKbvlZMbCTcn01aR75J8Q84XDOdVQQ9HxXzkUftoJa09GLh3jKkL6srm1cQZYShOgEgXQmIuBLI3cIRDGn8aXoSrPiSlyvDHmnSRsc2oS0QX4j9KwD3drgc0r/nmKHQLXzMoXdOq7o585r+0N8hyBySDyXJc4hfe23C4nv/GCcejyYbIdAtys6fhahBAhAAALjCCAIxvGb5O3QJOUHcsq0ncBKozeRCpOeP9mmrbyWQMYJgvqmmPivNccFgb4s15Rl2fvqV5zlwLBNnfEPrDrBspDzHSrTc6pRgiBgv5GCYHDdlW3RlO/6avAdQSBrBYH83DD/jrcp3L+9sWDQDkGbjpd8c5qzMi7uYNbBu/3LwMIFA50xwr25yLrhrO4HriBI6YuhMwTRsWUCQTB87JlkWqEQCEAAAkkEEARJuOZ5OHZITrytR7h96O3j7+VNMkLw2W5fp6UMxVbU6slZvP0mKaXCZtumNvjXjL41u6/1DTUKQWClAfWVlfNp+DUri3ftzTRNmkvNr5t+IaZ21e23U2Q6Bz3rlAzp1pK9eXdf3RKlDKJLgr4A8II3qz7DUoYs0SdekdpXd//WmXZXTrgtySo/vosg8ZQZawXBpP7dcG/bGcxx9/pOlovu3n6U3agkne+o+7/4tyYNqM/nSh/a/5ldaftbFb4XB7jbd+x0mNr3GztKt2b9tG9Okvu31ibtDUDxvuiPX8qxJUUQBG4TslMQVePYnD9COc/URakQgMCKCCAIFmDMcNDdf2Vft+ryVaTNM1kgevPik7nIfgvgpifQlNMwBEhefn37zNmbG/P8nwtzbd16FBMW/hcC+c5SQN33ewZ2kJwFJZ3/rLK6qWLlU9F78fP3/9ybR6+6d58X4bLzOxB5QHDxb+n3CQKH2RXBn8xU2hHwWda/n1DvgIjdILqLMLDu3hmCLLD7YMzFK+tmpbxCwlmDeB67VCc/tUkdfAq2HOXfkTYVkq5Ic+keRg1dH5ouCGwx51i9p0/nT4q7YIXdbtuCxBvZpL7sp2Om2MT7vYniu0/M62xXzzS3kIV+BV4xtiQJAtdmtr8pvtWINEUK3gLmK6oAAQiskwCCYJ12pVWHIqC+ivVQFeI7EJifQPQ8xPxV4AsQgAAEIDAhAQTBhDApaoMEEAQbNDpNRhDgAxCAAATWRQBBsC570ppDE0AQHJo431sAAQTBAoxAFSAAAQhMSABBMCFMitoigTxn3T7ovEUGtHlrBIpzDt/emfvbl1trOu2FAAQgsEoCCIJVmpVGQQACEIAABCAAAQhAQEcAQaDjxFMQgAAEIAABCEAAAhBYJQEEwSrNSqMgAAEIQAACEIAABCCgI4Ag0HHiKQhAAAIQgAAEIAABCKySAIJglWalURCAAAQgAAEIQAACENARQBDoOPEUBCAAAQhAAAIQgAAEVkkAQbBKs9IoCEAAAhCAAAQgAAEI6AggCHSceAoCEIAABCAAAQhAAAKrJIAgWKVZaRQEIAABCEAAAhCAAAR0BBAEOk48BQEIQAACEIAABCAAgVUSQBCs0qw0CgIQgAAEIAABCEAAAjoCCAIdJ56CAAQgAAEIQAACEIDAKgkgCFZpVhoFAQhAAAIQgAAEIAABHQEEgY4TT0EAAhCAAAQgAAEIQGCVBBAEqzQrjYIABCAAAQhAAAIQgICOAIJAx4mnIAABCEAAAhCAAAQgsEoCCIJVmpVGQQACEIAABCAAAQhAQEcAQaDjxFMQgAAEIAABCEAAAhBYJQEEwSrNSqMgAAEIQAACEIAABCCgI4Ag0HHiKQhAAAIQgAAEIAABCKySAIJglWalURCAAAQgAAEIQAACENARQBDoOPEUBCAAAQhAAAIQgAAEVkkAQbBKs9IoCEAAAhCAAAQgAAEI6AggCHSceAoCEIAABCAAAQhAAAKrJIAgWKVZaRQEIAABCEAAAhCAAAR0BBAEOk48BQEIQAACEIAABCAAgVUSQBCs0qw0CgIQgAAEIAABCEAAAjoCCAIdJ56CAAQgAAEIQAACEIDAKgkgCFZpVhoFAQhAAAIQgAAEIAABHQEEgY4TT0EAAhCAAAQgAAEIQGCVBBAEqzQrjYIABCAAAQhAAAIQgICOAIJAx4mnIAABCEAAAhCAAAQgsEoCCIJVmpVGQQACEIAABCAAAQhAQEcAQaDjxFMQgAAEIAABCEAAAhBYJQEEwSrNSqMgAAEIQAACEIAABCCgI4Ag0HHiKQhAAAIQgAAEIAABCKySAIJglWalURCAAAQgAAEIQAACENARQBDoOPEUBCAAAQhAAAIQgAAEVkkAQbBKs9IoCEAAAhCAAAQgAAEI6AggCHSceAoCEIAABCAAAQhAAAKrJIAgWKVZaRQEIAABCEAAAhCAAAR0BBAEOk48BQEIQAACEIAABCAAgVUSQBCs0qw0CgIQgAAEIAABCEAAAjoCCAIdJ56CAAQgAAEIQAACEIDAKgkgCFZpVhoFAQhAAAIQgAAEIAABHQEEgY4TT0EAAhCAAAQgAAEIQGCVBBAEqzQrjYIABCAAAQhAAAIQgICOAIJAx4mnIAABCEAAAhCAAAQgsEoCCIJVmpVGQQACEIAABCAAAQhAQEcAQaDjxFMQgAAEIAABCEAAAhBYJQEEwSrNSqMgAAEIQAACEIAABCCgI4Ag0HHiKQhAAAIQgAAEIAABCKySAIJglWalURCAAAQgAAEIQAACENARQBDoOPEUBCAAAQhAAAIQgAAEVkkAQbBKs9IoCEAAAhCAAAQgAAEI6AggCHSceAoCEIAABCAAAQhAAAKrJIAgWKVZaRQEIAABCEAAAhCAAAR0BBAEOk48BQEIQAACEIAABCAAgVUSQBCs0qw0CgIQgAAEIAABCEAAAjoCCAIdJ56CAAQgAAEIQAACEIDAKgkgCFZpVhoFAQhAAAIQgAAEIAABHQEEgY4TT0EAAhCAAAQgAAEIQGCVBBAEqzQrjYIABCAAAQhAAAIQgICOAIJAx4mnIAABCEAAAhCAAAQgsEoCCIJVmpVGQQACEIAABCAAAQhAQEcAQaDjxFMQgAAEIAABCEAAAhBYJQEEwSrNSqMgAAEIQAACEIAABCCgI4Ag0HHiKQhAAAIQgAAEIAABCKySwP8H32hlej+JMyAAAAAASUVORK5CYII=;" parent="1" vertex="1">
          <mxGeometry x="-320" y="-592" width="380.59" height="246" as="geometry" />
        </mxCell>
        <mxCell id="M22sSa8-nU_xc1yX0LfK-46" value="&lt;h1 style=&quot;margin-top: 0px;&quot;&gt;Esquema relacional&lt;/h1&gt;&lt;div&gt;&lt;br&gt;&lt;/div&gt;&lt;div&gt;&lt;br&gt;&lt;/div&gt;&lt;div&gt;&lt;span style=&quot;white-space: pre;&quot;&gt;&#x9;&lt;/span&gt;&lt;span style=&quot;white-space: pre;&quot;&gt;&#x9;&lt;/span&gt;&lt;i&gt;PK&lt;/i&gt;&lt;/div&gt;&lt;div&gt;CLIENTE(&lt;u&gt;cod_cliente,&lt;/u&gt; nombre, direcciÃ³n, telÃ©fono)&lt;/div&gt;&lt;div&gt;&lt;br&gt;&lt;/div&gt;&lt;div&gt;&lt;br&gt;&lt;/div&gt;&lt;div&gt;&lt;span style=&quot;white-space: pre;&quot;&gt;&#x9;&lt;/span&gt;&lt;span style=&quot;white-space: pre;&quot;&gt;&#x9;&lt;/span&gt;&lt;span style=&quot;white-space: pre;&quot;&gt;&#x9;&lt;i&gt;PK&lt;/i&gt;&lt;/span&gt;&lt;/div&gt;&lt;div&gt;PRODUCTO(&lt;u&gt;cod_articulo&lt;/u&gt;, descripciÃ³n, precio)&lt;/div&gt;&lt;div&gt;&lt;br&gt;&lt;/div&gt;&lt;div&gt;&lt;br&gt;&lt;/div&gt;&lt;div&gt;&lt;span style=&quot;white-space: pre;&quot;&gt;&#x9;&lt;/span&gt;&lt;span style=&quot;white-space: pre;&quot;&gt;&#x9;&lt;/span&gt;&lt;i&gt;PK&lt;span style=&quot;white-space: pre;&quot;&gt;&#x9;&lt;/span&gt;&lt;span style=&quot;white-space: pre;&quot;&gt;&#x9;&lt;/span&gt;FK&lt;span style=&quot;white-space: pre;&quot;&gt;&#x9;&lt;/span&gt;&lt;span style=&quot;white-space: pre;&quot;&gt;&#x9;&lt;/span&gt;&lt;span style=&quot;white-space: pre;&quot;&gt;&#x9;&lt;/span&gt;FK&lt;/i&gt;&lt;/div&gt;&lt;div&gt;PEDIDO(&lt;u&gt;id_pedido&lt;/u&gt;, cod_cliente, cod_articulo, fecha_pedido)&lt;/div&gt;&lt;div&gt;&lt;br&gt;&lt;/div&gt;&lt;div&gt;&lt;br&gt;&lt;/div&gt;&lt;p&gt;&lt;br&gt;&lt;/p&gt;" style="text;html=1;whiteSpace=wrap;overflow=hidden;rounded=0;container=1;" parent="1" vertex="1">
          <mxGeometry x="-169" y="172" width="494" height="273" as="geometry">
            <mxRectangle x="-169" y="172" width="358" height="297" as="alternateBounds" />
          </mxGeometry>
        </mxCell>
        <mxCell id="M22sSa8-nU_xc1yX0LfK-52" value="" style="group" parent="1" vertex="1" connectable="0">
          <mxGeometry x="-390" y="-128" width="1215" height="258.07" as="geometry" />
        </mxCell>
        <mxCell id="M22sSa8-nU_xc1yX0LfK-18" value="" style="group" parent="M22sSa8-nU_xc1yX0LfK-52" vertex="1" connectable="0">
          <mxGeometry width="344" height="141" as="geometry" />
        </mxCell>
        <mxCell id="M22sSa8-nU_xc1yX0LfK-7" value="CLIENTE" style="rounded=0;whiteSpace=wrap;html=1;" parent="M22sSa8-nU_xc1yX0LfK-18" vertex="1">
          <mxGeometry x="132" width="212" height="141" as="geometry" />
        </mxCell>
        <mxCell id="M22sSa8-nU_xc1yX0LfK-12" value="" style="group" parent="M22sSa8-nU_xc1yX0LfK-18" vertex="1" connectable="0">
          <mxGeometry width="83" height="141" as="geometry" />
        </mxCell>
        <mxCell id="M22sSa8-nU_xc1yX0LfK-8" value="nombre" style="rounded=0;whiteSpace=wrap;html=1;" parent="M22sSa8-nU_xc1yX0LfK-12" vertex="1">
          <mxGeometry y="36.46551724137931" width="82.99999999999997" height="31.603448275862068" as="geometry" />
        </mxCell>
        <mxCell id="M22sSa8-nU_xc1yX0LfK-9" value="direcciÃ³n" style="rounded=0;whiteSpace=wrap;html=1;" parent="M22sSa8-nU_xc1yX0LfK-12" vertex="1">
          <mxGeometry y="72.93" width="83" height="32.07" as="geometry" />
        </mxCell>
        <mxCell id="M22sSa8-nU_xc1yX0LfK-10" value="telefÃ³no" style="rounded=0;whiteSpace=wrap;html=1;" parent="M22sSa8-nU_xc1yX0LfK-12" vertex="1">
          <mxGeometry y="109.39655172413792" width="82.99999999999997" height="31.603448275862068" as="geometry" />
        </mxCell>
        <mxCell id="M22sSa8-nU_xc1yX0LfK-11" value="&lt;u&gt;cod_cliente&lt;/u&gt;" style="rounded=0;whiteSpace=wrap;html=1;" parent="M22sSa8-nU_xc1yX0LfK-12" vertex="1">
          <mxGeometry width="82.99999999999997" height="31.603448275862068" as="geometry" />
        </mxCell>
        <mxCell id="M22sSa8-nU_xc1yX0LfK-14" value="" style="endArrow=none;html=1;rounded=0;fontSize=12;startSize=8;endSize=8;curved=1;exitX=1;exitY=0.5;exitDx=0;exitDy=0;entryX=0;entryY=0.25;entryDx=0;entryDy=0;" parent="M22sSa8-nU_xc1yX0LfK-18" source="M22sSa8-nU_xc1yX0LfK-11" target="M22sSa8-nU_xc1yX0LfK-7" edge="1">
          <mxGeometry width="50" height="50" relative="1" as="geometry">
            <mxPoint x="109" y="13" as="sourcePoint" />
            <mxPoint x="159" y="-37" as="targetPoint" />
          </mxGeometry>
        </mxCell>
        <mxCell id="M22sSa8-nU_xc1yX0LfK-15" value="" style="endArrow=none;html=1;rounded=0;fontSize=12;startSize=8;endSize=8;curved=1;exitX=1;exitY=0.5;exitDx=0;exitDy=0;entryX=0;entryY=0.426;entryDx=0;entryDy=0;entryPerimeter=0;" parent="M22sSa8-nU_xc1yX0LfK-18" source="M22sSa8-nU_xc1yX0LfK-8" target="M22sSa8-nU_xc1yX0LfK-7" edge="1">
          <mxGeometry width="50" height="50" relative="1" as="geometry">
            <mxPoint x="93" y="26" as="sourcePoint" />
            <mxPoint x="142" y="45" as="targetPoint" />
          </mxGeometry>
        </mxCell>
        <mxCell id="M22sSa8-nU_xc1yX0LfK-16" value="" style="endArrow=none;html=1;rounded=0;fontSize=12;startSize=8;endSize=8;curved=1;exitX=1;exitY=0.5;exitDx=0;exitDy=0;entryX=-0.002;entryY=0.592;entryDx=0;entryDy=0;entryPerimeter=0;" parent="M22sSa8-nU_xc1yX0LfK-18" source="M22sSa8-nU_xc1yX0LfK-9" target="M22sSa8-nU_xc1yX0LfK-7" edge="1">
          <mxGeometry width="50" height="50" relative="1" as="geometry">
            <mxPoint x="93" y="62" as="sourcePoint" />
            <mxPoint x="142" y="70" as="targetPoint" />
          </mxGeometry>
        </mxCell>
        <mxCell id="M22sSa8-nU_xc1yX0LfK-17" value="" style="endArrow=none;html=1;rounded=0;fontSize=12;startSize=8;endSize=8;curved=1;exitX=1;exitY=0.5;exitDx=0;exitDy=0;entryX=0;entryY=0.75;entryDx=0;entryDy=0;" parent="M22sSa8-nU_xc1yX0LfK-18" source="M22sSa8-nU_xc1yX0LfK-10" target="M22sSa8-nU_xc1yX0LfK-7" edge="1">
          <mxGeometry width="50" height="50" relative="1" as="geometry">
            <mxPoint x="215" y="122" as="sourcePoint" />
            <mxPoint x="265" y="72" as="targetPoint" />
          </mxGeometry>
        </mxCell>
        <mxCell id="M22sSa8-nU_xc1yX0LfK-34" value="" style="group" parent="M22sSa8-nU_xc1yX0LfK-52" vertex="1" connectable="0">
          <mxGeometry x="872" width="343" height="141" as="geometry" />
        </mxCell>
        <mxCell id="M22sSa8-nU_xc1yX0LfK-13" value="" style="endArrow=none;html=1;rounded=0;fontSize=12;startSize=8;endSize=8;curved=1;entryX=0;entryY=0.5;entryDx=0;entryDy=0;exitX=1;exitY=0.25;exitDx=0;exitDy=0;" parent="M22sSa8-nU_xc1yX0LfK-34" source="M22sSa8-nU_xc1yX0LfK-20" target="M22sSa8-nU_xc1yX0LfK-25" edge="1">
          <mxGeometry width="50" height="50" relative="1" as="geometry">
            <mxPoint x="-191" y="225" as="sourcePoint" />
            <mxPoint x="-141" y="175" as="targetPoint" />
          </mxGeometry>
        </mxCell>
        <mxCell id="M22sSa8-nU_xc1yX0LfK-20" value="PRODUCTO" style="rounded=0;whiteSpace=wrap;html=1;container=0;" parent="M22sSa8-nU_xc1yX0LfK-34" vertex="1">
          <mxGeometry width="212" height="141" as="geometry" />
        </mxCell>
        <mxCell id="M22sSa8-nU_xc1yX0LfK-31" value="" style="group" parent="M22sSa8-nU_xc1yX0LfK-34" vertex="1" connectable="0">
          <mxGeometry x="260" y="18" width="83" height="105" as="geometry" />
        </mxCell>
        <mxCell id="M22sSa8-nU_xc1yX0LfK-22" value="descripciÃ³n" style="rounded=0;whiteSpace=wrap;html=1;container=0;" parent="M22sSa8-nU_xc1yX0LfK-31" vertex="1">
          <mxGeometry y="36.4655172413793" width="82.99999999999997" height="31.603448275862068" as="geometry" />
        </mxCell>
        <mxCell id="M22sSa8-nU_xc1yX0LfK-23" value="precio" style="rounded=0;whiteSpace=wrap;html=1;container=0;" parent="M22sSa8-nU_xc1yX0LfK-31" vertex="1">
          <mxGeometry y="72.93" width="83" height="32.07" as="geometry" />
        </mxCell>
        <mxCell id="M22sSa8-nU_xc1yX0LfK-25" value="&lt;u&gt;cod_articulo&lt;/u&gt;" style="rounded=0;whiteSpace=wrap;html=1;container=0;" parent="M22sSa8-nU_xc1yX0LfK-31" vertex="1">
          <mxGeometry width="82.99999999999997" height="31.603448275862068" as="geometry" />
        </mxCell>
        <mxCell id="M22sSa8-nU_xc1yX0LfK-32" value="" style="endArrow=none;html=1;rounded=0;fontSize=12;startSize=8;endSize=8;curved=1;entryX=0;entryY=0.5;entryDx=0;entryDy=0;exitX=1;exitY=0.75;exitDx=0;exitDy=0;" parent="M22sSa8-nU_xc1yX0LfK-34" source="M22sSa8-nU_xc1yX0LfK-20" target="M22sSa8-nU_xc1yX0LfK-23" edge="1">
          <mxGeometry width="50" height="50" relative="1" as="geometry">
            <mxPoint x="132" y="67" as="sourcePoint" />
            <mxPoint x="182" y="17" as="targetPoint" />
          </mxGeometry>
        </mxCell>
        <mxCell id="M22sSa8-nU_xc1yX0LfK-33" value="" style="endArrow=none;html=1;rounded=0;fontSize=12;startSize=8;endSize=8;curved=1;entryX=0;entryY=0.5;entryDx=0;entryDy=0;exitX=1;exitY=0.5;exitDx=0;exitDy=0;" parent="M22sSa8-nU_xc1yX0LfK-34" source="M22sSa8-nU_xc1yX0LfK-20" target="M22sSa8-nU_xc1yX0LfK-22" edge="1">
          <mxGeometry width="50" height="50" relative="1" as="geometry">
            <mxPoint x="132" y="67" as="sourcePoint" />
            <mxPoint x="182" y="17" as="targetPoint" />
          </mxGeometry>
        </mxCell>
        <mxCell id="M22sSa8-nU_xc1yX0LfK-37" style="edgeStyle=none;curved=1;rounded=0;orthogonalLoop=1;jettySize=auto;html=1;exitX=1;exitY=0.5;exitDx=0;exitDy=0;entryX=0;entryY=0.5;entryDx=0;entryDy=0;fontSize=12;startSize=8;endSize=8;" parent="M22sSa8-nU_xc1yX0LfK-52" source="M22sSa8-nU_xc1yX0LfK-7" target="M22sSa8-nU_xc1yX0LfK-20" edge="1">
          <mxGeometry relative="1" as="geometry" />
        </mxCell>
        <mxCell id="M22sSa8-nU_xc1yX0LfK-38" value="" style="endArrow=classic;startArrow=classic;html=1;rounded=0;fontSize=12;startSize=8;endSize=8;curved=1;exitX=1;exitY=0.5;exitDx=0;exitDy=0;entryX=0;entryY=0.5;entryDx=0;entryDy=0;" parent="M22sSa8-nU_xc1yX0LfK-52" source="M22sSa8-nU_xc1yX0LfK-7" target="M22sSa8-nU_xc1yX0LfK-20" edge="1">
          <mxGeometry width="50" height="50" relative="1" as="geometry">
            <mxPoint x="709" y="-22" as="sourcePoint" />
            <mxPoint x="759" y="-72" as="targetPoint" />
          </mxGeometry>
        </mxCell>
        <mxCell id="M22sSa8-nU_xc1yX0LfK-50" value="" style="group" parent="M22sSa8-nU_xc1yX0LfK-52" vertex="1" connectable="0">
          <mxGeometry x="506" y="4.5" width="249" height="253.57" as="geometry" />
        </mxCell>
        <mxCell id="M22sSa8-nU_xc1yX0LfK-35" value="PEDIDO" style="rhombus;whiteSpace=wrap;html=1;" parent="M22sSa8-nU_xc1yX0LfK-50" vertex="1">
          <mxGeometry x="32" width="188" height="132" as="geometry" />
        </mxCell>
        <mxCell id="M22sSa8-nU_xc1yX0LfK-41" value="" style="endArrow=none;html=1;rounded=0;fontSize=12;startSize=8;endSize=8;curved=1;entryX=0;entryY=1;entryDx=0;entryDy=0;exitX=0.5;exitY=0;exitDx=0;exitDy=0;" parent="M22sSa8-nU_xc1yX0LfK-50" source="M22sSa8-nU_xc1yX0LfK-44" target="M22sSa8-nU_xc1yX0LfK-35" edge="1">
          <mxGeometry width="50" height="50" relative="1" as="geometry">
            <mxPoint x="41" y="210.5" as="sourcePoint" />
            <mxPoint x="223" y="-38.5" as="targetPoint" />
          </mxGeometry>
        </mxCell>
        <mxCell id="M22sSa8-nU_xc1yX0LfK-43" value="" style="endArrow=none;html=1;rounded=0;fontSize=12;startSize=8;endSize=8;curved=1;entryX=1;entryY=1;entryDx=0;entryDy=0;exitX=0.5;exitY=0;exitDx=0;exitDy=0;" parent="M22sSa8-nU_xc1yX0LfK-50" source="M22sSa8-nU_xc1yX0LfK-45" target="M22sSa8-nU_xc1yX0LfK-35" edge="1">
          <mxGeometry width="50" height="50" relative="1" as="geometry">
            <mxPoint x="205" y="211.5" as="sourcePoint" />
            <mxPoint x="89" y="109.5" as="targetPoint" />
          </mxGeometry>
        </mxCell>
        <mxCell id="M22sSa8-nU_xc1yX0LfK-44" value="fecha_pedido" style="rounded=0;whiteSpace=wrap;html=1;container=0;" parent="M22sSa8-nU_xc1yX0LfK-50" vertex="1">
          <mxGeometry y="221.5" width="83" height="32.07" as="geometry" />
        </mxCell>
        <mxCell id="M22sSa8-nU_xc1yX0LfK-45" value="&lt;u&gt;id_pedido&lt;/u&gt;" style="rounded=0;whiteSpace=wrap;html=1;container=0;" parent="M22sSa8-nU_xc1yX0LfK-50" vertex="1">
          <mxGeometry x="166" y="221.5" width="83" height="32.07" as="geometry" />
        </mxCell>
        <mxCell id="M22sSa8-nU_xc1yX0LfK-51" value="" style="group" parent="M22sSa8-nU_xc1yX0LfK-52" vertex="1" connectable="0">
          <mxGeometry x="351" y="39" width="510" height="30" as="geometry" />
        </mxCell>
        <mxCell id="M22sSa8-nU_xc1yX0LfK-47" value="&lt;i&gt;(M,N)&lt;/i&gt;" style="text;html=1;align=center;verticalAlign=middle;whiteSpace=wrap;rounded=0;" parent="M22sSa8-nU_xc1yX0LfK-51" vertex="1">
          <mxGeometry width="60" height="30" as="geometry" />
        </mxCell>
        <mxCell id="M22sSa8-nU_xc1yX0LfK-48" value="&lt;i&gt;(1,N)&lt;/i&gt;" style="text;html=1;align=center;verticalAlign=middle;whiteSpace=wrap;rounded=0;" parent="M22sSa8-nU_xc1yX0LfK-51" vertex="1">
          <mxGeometry x="450" width="60" height="30" as="geometry" />
        </mxCell>
      </root>
    </mxGraphModel>
  </diagram>
</mxfile>
